<?xml version="1.0" encoding="UTF-8" standalone="no"?>
<!-- Created with Inkscape (http://www.inkscape.org/) -->

<svg
   width="512"
   height="512"
   viewBox="0 0 135.46666 135.46667"
   version="1.1"
   id="svg1"
   inkscape:version="1.3 (0e150ed6c4, 2023-07-21)"
   sodipodi:docname="drawing.svg"
   xml:space="preserve"
   inkscape:export-filename="bitmap.png"
   inkscape:export-xdpi="96"
   inkscape:export-ydpi="96"
   xmlns:inkscape="http://www.inkscape.org/namespaces/inkscape"
   xmlns:sodipodi="http://sodipodi.sourceforge.net/DTD/sodipodi-0.dtd"
   xmlns="http://www.w3.org/2000/svg"
   xmlns:svg="http://www.w3.org/2000/svg"
   xmlns:rdf="http://www.w3.org/1999/02/22-rdf-syntax-ns#"
   xmlns:cc="http://creativecommons.org/ns#"
   xmlns:dc="http://purl.org/dc/elements/1.1/"><sodipodi:namedview
     id="namedview1"
     pagecolor="#505050"
     bordercolor="#eeeeee"
     borderopacity="1"
     inkscape:showpageshadow="0"
     inkscape:pageopacity="0"
     inkscape:pagecheckerboard="0"
     inkscape:deskcolor="#505050"
     inkscape:document-units="px"
     inkscape:zoom="0.12645809"
     inkscape:cx="751.23704"
     inkscape:cy="67.215946"
     inkscape:window-width="1920"
     inkscape:window-height="1011"
     inkscape:window-x="0"
     inkscape:window-y="0"
     inkscape:window-maximized="1"
     inkscape:current-layer="layer1" /><defs
     id="defs1" /><g
     inkscape:label="Layer 1"
     inkscape:groupmode="layer"
     id="layer1"><rect
       style="fill:#000000;stroke-width:0.264583;fill-opacity:1"
       id="rect1"
       width="135.46666"
       height="135.46666"
       x="0"
       y="0" /><circle
       style="fill:#2a68a6;stroke-width:0.264583;fill-opacity:0"
       id="circle2"
       cx="67.73333"
       cy="67.73333"
       r="67.73333" /><g
       id="g2608"
       transform="matrix(0.4592065,0,0,0.4592065,5.5261597,6.4065257)"
       style="fill:#ffffff;fill-opacity:1"><g
         id="g1767"
         transform="matrix(1.0798946,0,0,1.0798946,-7.9488109,-19.740846)"
         style="fill:#ffffff;fill-opacity:1"><path
           id="rect1160"
           style="opacity:1;fill:#ffffff;fill-opacity:1;stroke:none;stroke-width:2.80023"
           d="m 132.83944,106.26328 v 21.29017 h 54.3481 v -21.29017 z m 35.69962,2.97028 c 0.15088,0.003 0.2655,0.0621 0.34159,0.17518 0.0685,0.10184 0.0987,0.24841 0.0987,0.4377 v 0.002 c -0.009,0.20886 -0.0372,0.39737 -0.093,0.56379 -0.0572,0.17006 -0.14085,0.31724 -0.2496,0.4439 -0.10357,0.12096 -0.21169,0.2258 -0.32453,0.31368 v 5.1e-4 c -0.11295,0.0879 -0.23219,0.15911 -0.35708,0.21188 -0.12126,0.0523 -0.28471,0.1053 -0.48937,0.15864 -0.18112,0.0473 -0.39664,0.0956 -0.64493,0.14315 v 0.35398 0.3328 c 0.3526,-0.0172 0.72414,-0.0286 1.11311,-0.0367 0.43193,-0.009 0.87623,-0.0129 1.33274,-0.0129 l 5.2e-4,5.1e-4 c 0.44073,0.003 0.78771,0.017 1.03869,0.0393 0.26682,0.0251 0.43646,0.0655 0.50643,0.12092 v 5.2e-4 c 0.0641,0.05 0.11344,0.10132 0.14728,0.15193 h -5.2e-4 c 0.0381,0.0573 0.061,0.1164 0.061,0.17415 v 0.002 c 0,0.0572 -0.0127,0.11319 -0.0444,0.1664 -0.0285,0.0481 -0.0707,0.0941 -0.12661,0.13591 v 5.2e-4 c -0.0555,0.0403 -0.12334,0.0707 -0.20257,0.0915 -0.0736,0.0196 -0.15745,0.0306 -0.25218,0.0336 -0.0771,0.005 -0.25412,0.009 -0.53072,0.009 -0.27183,7.6e-4 -0.64241,1.8e-4 -1.10794,-0.002 -0.4663,-0.002 -0.86971,5.4e-4 -1.20716,0.008 -0.28884,0.005 -0.53151,0.0138 -0.72864,0.0284 v 0.20877 c 0,0.0733 -2.2e-4,0.12314 0.009,0.14883 l 5.2e-4,0.005 5.2e-4,0.0124 0.0129,0.19379 c 0.13897,0.003 0.29078,0.009 0.45475,0.0248 0.19608,0.0141 0.41587,0.0393 0.65732,0.0703 0.24025,0.0307 0.44562,0.071 0.61495,0.11989 0.17669,0.0503 0.31794,0.11179 0.42375,0.18242 l 5.2e-4,5.1e-4 c 0.10168,0.0693 0.19416,0.14436 0.27492,0.22686 0.0798,0.081 0.15043,0.16983 0.20877,0.26459 h 5.2e-4 c 0.0606,0.0984 0.10659,0.20032 0.13745,0.30437 0.0312,0.10388 0.0496,0.21226 0.0496,0.32298 v 5.2e-4 c 0,0.10842 -0.009,0.22215 -0.0139,0.33899 -0.009,0.10826 -0.0246,0.22264 -0.045,0.34262 -0.0196,0.1219 -0.0412,0.2271 -0.0636,0.31419 -0.0246,0.092 -0.0508,0.1693 -0.0786,0.22893 l -0.17311,0.38757 c 0.0285,0.0677 0.0582,0.13944 0.0878,0.21497 0.0312,0.0796 0.0648,0.16725 0.0987,0.26149 h 5.2e-4 c 0.0338,0.0892 0.07,0.20512 0.11058,0.34571 0.039,0.13772 0.0831,0.30432 0.13074,0.49868 l 0.001,10e-4 c 0.045,0.19116 0.0859,0.38092 0.12144,0.56741 0.0356,0.18405 0.0646,0.36571 0.0884,0.54415 0.0246,0.17669 0.0486,0.36842 0.0713,0.57361 v 5.2e-4 c 0.0246,0.21375 0.045,0.4314 0.0641,0.64957 v 5.2e-4 l 0.12092,1.55339 c 0.009,0.14383 0.0198,0.27477 0.0248,0.38964 0.009,0.13177 0.009,0.23529 0.009,0.31161 v 0.003 l -0.032,0.78858 c 0,0.0915 -0.0129,0.17461 -0.0289,0.24702 -0.0172,0.0755 -0.0394,0.14288 -0.0698,0.2005 -0.0329,0.0658 -0.0789,0.11715 -0.13436,0.15193 -0.0555,0.0351 -0.12117,0.0539 -0.19482,0.0553 -0.0797,8.6e-4 -0.15332,-0.0254 -0.22014,-0.0801 h -5.2e-4 c -0.058,-0.0481 -0.11099,-0.11853 -0.15658,-0.21033 l 5.2e-4,-5.1e-4 c -0.0277,-0.0536 -0.0467,-0.12124 -0.0579,-0.19999 -0.009,-0.0744 -0.009,-0.16087 -0.009,-0.2589 v -5.2e-4 c 0.009,-0.0909 0,-0.24149 0,-0.44958 v -5.2e-4 c 0,-0.20755 -0.017,-0.47629 -0.0336,-0.80563 l -0.0615,-1.12552 h -5.1e-4 c -0.008,-0.0736 -0.0192,-0.2065 -0.0403,-0.39739 -0.0196,-0.18578 -0.0512,-0.44721 -0.091,-0.77773 -0.039,-0.32075 -0.0753,-0.59508 -0.11007,-0.82165 -0.0346,-0.22382 -0.066,-0.39677 -0.0961,-0.51729 l -5.2e-4,-0.003 c -0.0277,-0.12127 -0.0727,-0.28299 -0.13384,-0.4842 l 5.2e-4,-5.2e-4 c -0.0503,-0.16589 -0.11674,-0.37365 -0.19741,-0.61908 -0.0736,0.0251 -0.147,0.0493 -0.22065,0.0718 -0.11093,0.0343 -0.21567,0.0647 -0.31161,0.0904 h -5.2e-4 c -0.10012,0.0255 -0.25837,0.0506 -0.47387,0.0749 -0.19732,0.0221 -0.44152,0.045 -0.73381,0.0672 l -0.0145,0.18862 c -0.009,0.091 -0.0124,0.17618 -0.0171,0.2527 0,0.081 -0.009,0.18097 -0.009,0.29662 -2.5e-4,0.1161 0,0.25115 0,0.40152 v 0.002 0.0124 l 0.4191,0.0264 0.4253,0.0248 -0.014,-0.18345 -0.009,-0.10387 -5.2e-4,-0.001 c 0,-0.0541 -0.009,-0.11511 -0.009,-0.18035 v -5.2e-4 -0.19378 c 8.7e-4,-0.0749 0.0144,-0.14371 0.0393,-0.20413 v -5.1e-4 c 0.0251,-0.0633 0.0623,-0.11922 0.11008,-0.16588 v -0.002 c 0.0459,-0.042 0.094,-0.0747 0.14211,-0.0966 l 5.1e-4,-5.1e-4 c 0.052,-0.0246 0.1057,-0.0351 0.1602,-0.0351 0.13223,0.003 0.23537,0.0756 0.30747,0.21704 l 5.2e-4,5.1e-4 c 0.0606,0.11876 0.0985,0.29056 0.11266,0.51367 l 0.0248,0.34881 c 0.0141,0.20541 0.0218,0.33032 0.0243,0.37621 v 0.15813 5.1e-4 l 0.001,0.24392 v 0.002 c 0,0.26458 -0.0245,0.51041 -0.0579,0.73794 -0.0338,0.22896 -0.0832,0.44271 -0.14676,0.64079 -0.0667,0.20785 -0.17616,0.38478 -0.32763,0.52814 -0.14994,0.14241 -0.34005,0.25187 -0.56999,0.32917 l -5.1e-4,5.2e-4 c -0.22014,0.0727 -0.45316,0.12883 -0.69609,0.16692 -0.23853,0.0373 -0.48598,0.0568 -0.74052,0.0579 -0.2606,5.2e-4 -0.5028,-0.0331 -0.72192,-0.10128 -0.21939,-0.0685 -0.41751,-0.17148 -0.59221,-0.31006 l 5.2e-4,-5.2e-4 c -0.10435,-0.0776 -0.19403,-0.16156 -0.26717,-0.25166 -0.0744,-0.091 -0.13375,-0.18954 -0.17518,-0.29404 -0.0425,-0.1031 -0.0784,-0.21473 -0.10491,-0.3328 -0.0268,-0.11579 -0.0467,-0.24204 -0.0589,-0.37724 v -0.002 c -0.009,-0.12785 -0.0198,-0.26161 -0.0253,-0.40101 -0.009,-0.13427 -0.0124,-0.27276 -0.0124,-0.41393 v -5.2e-4 c 0,-0.14179 -2.2e-4,-0.28586 0.009,-0.43046 0.008,-0.14994 0.0173,-0.297 0.0295,-0.44183 h 5.2e-4 c 0.009,-0.10356 0.0217,-0.1986 0.0455,-0.28474 0.0251,-0.0888 0.0597,-0.16875 0.10439,-0.23771 0.0468,-0.0727 0.0997,-0.12758 0.15864,-0.16382 0.0632,-0.0395 0.13229,-0.0575 0.20671,-0.0543 0.0555,0.005 0.10685,0.0194 0.15245,0.0465 0.0425,0.0255 0.0796,0.0618 0.10955,0.10904 0.0285,0.041 0.0501,0.0849 0.0656,0.13022 0.0141,0.0461 0.0263,0.0937 0.0305,0.14211 v 0.008 c 0,0.0221 2.1e-4,0.0681 -0.009,0.13074 l -0.009,0.0512 h 5.2e-4 c -0.009,0.0434 -0.009,0.0865 -0.009,0.12558 v 5.1e-4 c 0,0.0407 8.9e-4,0.0848 0,0.12919 l 5.2e-4,0.005 v 0.14056 c 0.14524,-0.0172 0.29735,-0.0322 0.45682,-0.047 0.16835,-0.0141 0.33597,-0.0282 0.50281,-0.0393 l 0.009,-1.14722 c -0.46164,-0.0252 -0.82981,-0.0547 -1.10277,-0.0873 -0.30674,-0.0365 -0.504,-0.0812 -0.59066,-0.13022 l -0.36536,-0.18345 c -0.0363,0.0935 -0.0692,0.18126 -0.0982,0.26096 h 5.1e-4 c -0.0442,0.12393 -0.0813,0.23309 -0.10903,0.32556 l -5.2e-4,0.002 c -0.0312,0.0962 -0.0614,0.20406 -0.0889,0.32143 -0.0285,0.11954 -0.0542,0.24838 -0.0786,0.38602 h -5.2e-4 c -0.0221,0.1396 -0.0456,0.30368 -0.0672,0.49041 -0.0221,0.18602 -0.0434,0.38535 -0.0625,0.59841 -0.0196,0.21523 -0.0363,0.4254 -0.0486,0.62839 -0.0125,0.20296 -0.0248,0.39082 -0.0248,0.56172 v 5.2e-4 l -5.1e-4,0.0398 c -0.009,0.33349 -0.0172,0.65297 -0.0196,0.94568 v 0.38499 c 0,0.0992 0,0.17521 0,0.22479 v 5.2e-4 l 0.0408,0.83044 v 0.005 c 0,0.10309 -0.009,0.19716 -0.0284,0.28009 -0.0196,0.0863 -0.0509,0.16207 -0.0925,0.22686 l -0.001,0.001 c -0.0442,0.0666 -0.0942,0.11722 -0.15038,0.1509 -0.0589,0.0356 -0.12411,0.0512 -0.1943,0.0486 -0.0736,-1.8e-4 -0.1412,-0.0194 -0.20154,-0.0553 -0.0589,-0.0348 -0.10958,-0.0864 -0.15141,-0.15399 -0.0425,-0.0663 -0.0744,-0.17358 -0.0982,-0.3204 -0.0221,-0.13819 -0.046,-0.31473 -0.046,-0.52865 v -5.2e-4 l -0.014,-0.36431 c -0.009,-0.22332 -0.0145,-0.3752 -0.0145,-0.45321 h 5.1e-4 c 0,-0.0603 -8.9e-4,-0.15126 0,-0.27078 0,-0.12174 0.009,-0.27218 0.0171,-0.45062 0.009,-0.2844 0.0169,-0.53826 0.0274,-0.76068 0.009,-0.23903 0.0315,-0.44382 0.0315,-0.61701 v -5.2e-4 c 0.0125,-0.16541 0.0282,-0.3558 0.0491,-0.57051 0.0196,-0.21523 0.0452,-0.4423 0.0729,-0.68213 v -5.1e-4 c 0.0294,-0.24517 0.0634,-0.46519 0.10284,-0.65836 0.0398,-0.19461 0.0849,-0.36029 0.13384,-0.49403 v -5.1e-4 c 0.0528,-0.13991 0.12352,-0.31603 0.21136,-0.5271 0.0736,-0.17719 0.1603,-0.37883 0.25942,-0.6041 -0.0363,-0.1056 -0.0686,-0.21496 -0.0977,-0.32608 -0.0172,-0.0682 -0.0319,-0.16949 -0.0424,-0.30127 -0.009,-0.12362 -0.0222,-0.28273 -0.0222,-0.47491 v -5.2e-4 c 0,-0.19928 0.0224,-0.38202 0.0765,-0.54467 0.0545,-0.16492 0.13406,-0.31544 0.25373,-0.43511 l 5.2e-4,-5.2e-4 c 0.11884,-0.11883 0.25256,-0.22954 0.41238,-0.31833 0.15781,-0.0879 0.33778,-0.1598 0.54002,-0.216 l 0.001,-5.2e-4 c 0.20124,-0.053 0.44528,-0.0978 0.73071,-0.13384 0.25712,-0.0326 0.54868,-0.0582 0.87333,-0.076 l 0.0274,-0.63717 c -0.76888,0.0255 -1.39169,0.0494 -1.86707,0.0698 -0.49546,0.0221 -0.82605,0.0402 -0.99219,0.0558 -0.17325,0.0172 -0.32074,0.0276 -0.43925,0.0331 -0.12471,0.005 -0.22391,0.005 -0.29611,0 -0.18529,-0.005 -0.32927,-0.0344 -0.42891,-0.0822 -0.12441,-0.0602 -0.18965,-0.1515 -0.18965,-0.26975 v -5.1e-4 c 0,-0.0884 0.009,-0.16763 0.0315,-0.23513 0.0246,-0.0724 0.0598,-0.13283 0.10904,-0.17828 0.0398,-0.0376 0.0862,-0.069 0.13901,-0.0915 v 5.1e-4 c 0.0511,-0.0221 0.10956,-0.038 0.17208,-0.046 0.058,-0.009 0.12677,-0.0173 0.20205,-0.0222 0.065,-0.005 0.14,-0.009 0.22686,-0.0124 l 1.13585,-0.0465 1.0542,-0.0253 1.125,-0.0506 v -0.0543 c 0.009,-0.15307 0.009,-0.24987 0.009,-0.29456 l -0.009,-0.31006 c -0.44812,-0.0307 -0.81569,-0.0773 -1.10277,-0.13901 -0.31756,-0.0685 -0.54235,-0.15852 -0.67386,-0.26923 -0.12519,-0.10622 -0.22707,-0.21198 -0.30541,-0.31523 -0.0805,-0.10623 -0.13767,-0.21228 -0.17157,-0.31729 l -5.1e-4,-0.002 c -0.0295,-0.0992 -0.0549,-0.19435 -0.0724,-0.28422 -0.0172,-0.0906 -0.029,-0.17913 -0.0315,-0.262 0,-0.0813 -3.4e-4,-0.14893 5.1e-4,-0.20051 0,-0.0598 0.0127,-0.106 0.0248,-0.13797 h -5.2e-4 c 0.0125,-0.0285 0.0312,-0.0605 0.0589,-0.093 0.0221,-0.0269 0.0508,-0.0578 0.0863,-0.0899 v -0.003 c 0.039,-0.0334 0.0817,-0.0606 0.12558,-0.0791 0.0467,-0.0196 0.0956,-0.03 0.14676,-0.03 h 0.009 c 0.0562,0.003 0.10677,0.0175 0.14986,0.0398 0.0459,0.0246 0.0847,0.0579 0.11266,0.10077 0.0221,0.0332 0.0425,0.0677 0.0589,0.10335 l 5.2e-4,5.2e-4 c 0.0172,0.0373 0.0312,0.0759 0.0398,0.11421 l 5.1e-4,0.003 0.0956,0.47697 c 0.0246,0.0577 0.055,0.11051 0.0935,0.1571 0.0415,0.0501 0.0932,0.0951 0.15193,0.13332 0.0589,0.0368 0.14518,0.0699 0.2589,0.0971 0.12033,0.0291 0.27011,0.0529 0.44855,0.0703 0.17548,0.0172 0.33463,0.0289 0.47749,0.0377 0.13318,0.009 0.24357,0.0124 0.32969,0.0124 h 5.2e-4 c 0.32076,0 0.5945,-0.0122 0.81856,-0.0439 0.21891,-0.0312 0.38876,-0.0783 0.50953,-0.14055 0.12424,-0.0638 0.22513,-0.12824 0.30127,-0.19224 0.071,-0.0594 0.12058,-0.11918 0.14831,-0.17777 l 0.001,-0.003 c 0.032,-0.0631 0.0571,-0.13626 0.077,-0.21756 0.0196,-0.0812 0.0338,-0.17443 0.0424,-0.27802 0.009,-0.10952 0.0245,-0.20048 0.045,-0.27233 0.0246,-0.0841 0.0578,-0.14605 0.10026,-0.18294 0.039,-0.0337 0.0835,-0.0585 0.13332,-0.0739 v -5.2e-4 c 0.0467,-0.0141 0.0979,-0.0217 0.15296,-0.0217 z m -15.40112,0.72605 c 0.0169,-6.3e-4 0.0344,-7.7e-4 0.0522,0 0.0901,0.008 0.16457,0.0399 0.22273,0.0966 0.0555,0.0541 0.0934,0.12931 0.11317,0.22427 l 5.1e-4,0.001 c 0.0141,0.0794 0.027,0.17069 0.0331,0.27234 0.009,0.0945 0.009,0.20019 0.009,0.31574 0,0.11704 -2.3e-4,0.27659 5.2e-4,0.47388 0,0.18038 0.009,0.39697 0.0176,0.64802 v 0.003 l -0.009,2.87683 0.032,1.68155 5.1e-4,0.002 c 0,0.45868 -9e-5,0.83129 0.0124,1.11673 0.009,0.29468 0.0199,0.50639 0.0341,0.63304 0.0141,0.123 0.0345,0.24639 0.0579,0.36742 0.0246,0.12127 0.0529,0.23963 0.0858,0.35398 v 0.001 c 0.0312,0.1139 0.0726,0.24116 0.12351,0.38034 0.0503,0.13694 0.11035,0.28693 0.18035,0.44907 v 5.2e-4 c 0.0693,0.16393 0.14548,0.32543 0.22479,0.48317 0.0805,0.15976 0.16619,0.31967 0.2558,0.47749 0.0888,0.15682 0.23203,0.37432 0.42736,0.65216 0.17767,0.25251 0.40061,0.5561 0.66611,0.91002 l 0.0579,-0.0873 c 0.0459,-0.0719 0.0915,-0.14979 0.13643,-0.23151 0.0425,-0.0785 0.0849,-0.19634 0.1235,-0.35244 0.0398,-0.15755 0.077,-0.35448 0.11008,-0.58807 v -5.2e-4 c 0.0346,-0.23608 0.0615,-0.51423 0.0806,-0.83302 0.0196,-0.3224 0.0299,-0.68643 0.0336,-1.08883 v -4.39094 c 0,-0.22577 -6.9e-4,-0.41 0,-0.55036 0,-0.17889 -3e-4,-0.32677 -0.009,-0.44235 l -0.0615,-1.45624 v -0.002 c 0,-0.0893 -0.009,-0.19123 -0.014,-0.30385 -0.009,-0.11657 -0.0171,-0.23563 -0.0294,-0.35709 -0.0125,-0.13725 -0.0123,-0.25258 0.001,-0.34313 0.0141,-0.10215 0.0485,-0.1817 0.10077,-0.23668 0.0432,-0.0489 0.0928,-0.0877 0.14521,-0.11524 0.0555,-0.0291 0.11347,-0.0467 0.17208,-0.0517 h 0.001 c 0.0641,-0.005 0.12661,0.008 0.18604,0.0367 0.0555,0.0273 0.10792,0.0699 0.15555,0.12609 v 0.003 0.005 c 0.0285,0.0415 0.0517,0.0973 0.0682,0.16639 0.0141,0.0625 0.0259,0.1379 0.032,0.22325 l 0.0346,0.43615 v 0.005 l 0.0269,1.06867 0.0465,1.05368 v 0.001 c 0.009,0.23657 0.0141,0.57425 0.0196,1.01182 0.009,0.42309 0.009,0.94046 0.009,1.5503 v 0.0382 c 0,1.21725 -0.009,2.05652 -0.009,2.51457 v 0.001 c -0.009,0.24959 -0.017,0.54738 -0.031,0.89246 -0.0141,0.32172 -0.0329,0.68281 -0.0563,1.08313 -0.0246,0.43166 -0.11065,0.81868 -0.2589,1.15911 -0.14916,0.34231 -0.36177,0.63821 -0.63614,0.88625 -0.27652,0.25063 -0.69772,0.43127 -1.26246,0.5395 -0.55285,0.10623 -1.24865,0.14515 -2.08617,0.11679 -0.37158,-0.009 -0.69722,-0.0248 -0.97462,-0.0491 v -5.2e-4 c -0.28293,-0.0251 -0.52238,-0.0587 -0.71572,-0.10025 h -0.001 c -0.19928,-0.0445 -0.37737,-0.10536 -0.53175,-0.18242 v 5.2e-4 c -0.15605,-0.0776 -0.28995,-0.17344 -0.39895,-0.28629 -0.10622,-0.10717 -0.20906,-0.23478 -0.30695,-0.38034 -0.0998,-0.1479 -0.19809,-0.319 -0.29301,-0.50798 -0.0948,-0.18947 -0.17332,-0.3957 -0.23564,-0.61753 -0.0624,-0.22234 -0.10882,-0.46225 -0.13953,-0.71675 v -5.2e-4 c -0.0285,-0.25546 -0.054,-0.53219 -0.0739,-0.82837 -0.0196,-0.28719 -0.0353,-0.59961 -0.0465,-0.93535 -0.0125,-0.33548 -0.0199,-0.68917 -0.0263,-1.0604 -0.009,-0.37946 -0.009,-0.76683 -0.009,-1.16117 v -2.19573 c 0,-0.2844 -2.1e-4,-0.54624 0.009,-0.77721 0,-0.24976 0.0145,-0.4484 0.0145,-0.59325 v -5.2e-4 c 0,-0.23355 0.0217,-0.4856 0.0377,-0.75137 l 0.009,-0.15193 v -10e-4 c 0.009,-0.16517 0.0169,-0.3114 0.0243,-0.43822 0.009,-0.13051 0.009,-0.24226 0.0129,-0.33228 0,-0.10106 0.0137,-0.18955 0.0377,-0.262 0.0246,-0.0805 0.0614,-0.1448 0.10955,-0.1912 v -0.003 c 0.045,-0.0398 0.0989,-0.0726 0.15968,-0.0951 0.058,-0.0221 0.12494,-0.0347 0.19689,-0.0377 0.0881,-0.005 0.16329,0.0223 0.22221,0.0734 l 5.1e-4,5.2e-4 c 0.0545,0.049 0.0923,0.12068 0.11059,0.21239 0.0172,0.0793 0.0298,0.16112 0.0367,0.24236 0.009,0.0768 0.009,0.15787 0.009,0.24081 v 0.003 l -0.017,0.2682 v 0.001 c -0.0196,0.27209 -0.0345,0.6477 -0.0424,1.12603 -0.009,0.48198 -0.009,1.06983 -0.009,1.76165 v 5.1e-4 1.64796 c 0,0.45963 4.1e-4,0.88537 0.0129,1.27486 0.009,0.3941 0.0217,0.76348 0.0377,1.10433 0.0172,0.3352 0.0356,0.65236 0.0563,0.95033 0.0196,0.29913 0.0444,0.57123 0.0687,0.81493 0.0246,0.24123 0.0564,0.44546 0.0971,0.6103 0.0398,0.16025 0.0865,0.282 0.13901,0.36277 v 0.005 l 0.2651,0.46767 c 0.38749,-0.4959 0.70232,-0.90909 0.94309,-1.23816 0.25496,-0.34855 0.4224,-0.59611 0.50023,-0.74259 v -0.001 c 0.0797,-0.14352 0.15333,-0.28677 0.22014,-0.42736 h 5.2e-4 c 0.0658,-0.13835 0.12514,-0.27487 0.17673,-0.40618 l 5.2e-4,-5.1e-4 c 0.0503,-0.12785 0.0937,-0.24852 0.12764,-0.35967 0.0338,-0.10952 0.059,-0.2133 0.0754,-0.30851 v -0.001 c 0.0172,-0.095 0.031,-0.21397 0.0413,-0.35606 0.009,-0.14524 0.0172,-0.31047 0.0196,-0.49454 l -0.009,-1.973 0.009,-3.14142 c -0.009,-0.52324 -0.0168,-0.94147 -0.0217,-1.25263 -0.009,-0.33546 -0.009,-0.54698 0,-0.63407 h -5.2e-4 c 0,-0.0749 3.1e-4,-0.15848 0.009,-0.24753 0,-0.0896 0.0124,-0.17747 0.0124,-0.26562 v -5.2e-4 c 0.009,-0.0971 0.0197,-0.18117 0.0382,-0.25114 0.0221,-0.0783 0.0535,-0.1415 0.0925,-0.18759 v -0.003 c 0.0425,-0.0464 0.0943,-0.0801 0.15348,-0.10128 0.0416,-0.0147 0.0882,-0.0229 0.13901,-0.0248 z m 13.69942,4.75475 -0.003,0.001 c 9e-4,2e-5 0.002,-2e-5 0.003,0 z m 0,0.001 -0.0124,0.16433 c -0.009,0.0602 -0.009,0.099 -0.009,0.11576 v 0.002 l -0.009,0.32814 c 0.16736,0.0172 0.32857,0.0389 0.48266,0.0687 0.18331,0.0351 0.35711,0.0802 0.51883,0.13384 0.16247,0.0533 0.29906,0.10751 0.40928,0.16227 v 5.1e-4 c 0.11516,0.0572 0.20484,0.11692 0.26665,0.17674 l 0.19585,0.1819 0.0258,-0.094 c 0.0196,-0.0707 0.0336,-0.12949 0.0413,-0.17364 l 0.001,-0.003 c 0.009,-0.0434 0.0191,-0.099 0.0191,-0.1633 v -5.1e-4 c 0.008,-0.068 0.008,-0.14444 0.008,-0.2279 v -0.001 c 0,-0.071 -0.0172,-0.14333 -0.0486,-0.21446 l -5.2e-4,-5.1e-4 c -0.0329,-0.0744 -0.0831,-0.14878 -0.14934,-0.22221 -0.058,-0.0624 -0.2347,-0.11487 -0.52917,-0.15607 -0.29589,-0.0411 -0.70008,-0.0681 -1.21026,-0.078 z m -0.95395,0.005 c -0.51903,0.0376 -0.92659,0.0834 -1.22008,0.13798 -0.29402,0.0547 -0.46516,0.1119 -0.51263,0.17208 -0.0606,0.0771 -0.10816,0.14584 -0.14107,0.20309 v 5.1e-4 c -0.0302,0.0525 -0.0484,0.0949 -0.0543,0.12609 v 5.2e-4 c -0.009,0.0398 -0.0141,0.0835 -0.0196,0.12764 v 0.001 c -0.009,0.0454 -0.009,0.0934 -0.009,0.13952 v 0.002 c 0,0.0454 3e-4,0.0854 0.009,0.11782 0,0.0255 0.009,0.0453 0.0139,0.0563 v 0.005 0.009 l 0.0243,0.0677 c 0.13255,-0.0705 0.26187,-0.13374 0.38705,-0.18914 l 5.2e-4,-5.2e-4 c 0.15543,-0.0688 0.30665,-0.12673 0.45165,-0.17259 0.14728,-0.0467 0.32136,-0.0897 0.52039,-0.12609 0.16418,-0.0302 0.34811,-0.0564 0.54983,-0.078 v -0.18655 z m -0.0212,1.39681 c -0.30085,0.0321 -0.55377,0.0774 -0.75913,0.1354 -0.2199,0.0619 -0.38109,0.13774 -0.48421,0.22686 v 0.003 l -0.30747,0.24029 0.0124,0.0248 c 0.0172,0.0302 0.041,0.0627 0.0661,0.0971 0.0172,0.0196 0.0562,0.0414 0.11783,0.063 0.0744,0.0259 0.17657,0.0494 0.30592,0.0692 0.13271,0.0172 0.29675,0.0336 0.48989,0.0444 0.16785,0.009 0.35696,0.0141 0.56534,0.0196 z m 0.94619,0.009 -0.0155,0.87747 c 0.13318,1.8e-4 0.2559,-0.009 0.36845,-0.009 h 5.2e-4 c 0.14233,0 0.26781,-0.0195 0.37724,-0.0362 0.10279,-0.0172 0.21683,-0.0487 0.34003,-0.0935 0.0948,-0.0351 0.19469,-0.0787 0.29972,-0.12971 -0.0503,-0.0602 -0.10399,-0.11505 -0.16071,-0.16433 -0.0832,-0.0719 -0.1742,-0.13298 -0.27234,-0.1819 l -5.2e-4,-5.1e-4 c -0.0984,-0.0494 -0.23526,-0.0984 -0.40927,-0.14522 -0.15041,-0.041 -0.32712,-0.0802 -0.52762,-0.1173 z m -0.17208,3.73827 c -0.16982,0 -0.40403,0.0175 -0.70125,0.0501 -0.28075,0.0313 -0.61546,0.0772 -1.00149,0.13746 v 0.12919 l 5.2e-4,0.23719 v 5.2e-4 c 0,0.0766 0.0169,0.16744 0.0491,0.26975 0.0329,0.10623 0.0843,0.22534 0.14934,0.3545 l 5.2e-4,0.002 c 0.0537,0.11014 0.16299,0.19344 0.32763,0.25011 0.17916,0.062 0.42053,0.0922 0.72192,0.0909 0.30353,-0.003 0.55324,-0.0309 0.74569,-0.0832 0.18062,-0.0495 0.30941,-0.12147 0.38551,-0.21394 l 5.1e-4,-5.1e-4 c 0.084,-0.0989 0.15061,-0.20863 0.19741,-0.32815 0.0476,-0.12001 0.0757,-0.25282 0.0853,-0.39636 v -0.002 l 0.0341,-0.41393 c -0.19411,-0.0246 -0.37244,-0.0432 -0.53485,-0.0574 -0.18357,-0.0172 -0.33776,-0.0254 -0.45992,-0.0264 z m -13.4121,0.23203 c 0,0.13795 -0.12118,0.24324 -0.18035,0.35657 -0.0935,0.17964 -0.19036,0.35773 -0.29043,0.5302 -0.0987,0.1745 -0.26936,0.42464 -0.51107,0.75034 -0.2226,0.29938 -0.50647,0.66288 -0.84957,1.08985 l 0.11783,0.0362 c 0.0805,0.0246 0.16263,0.0441 0.24288,0.061 v 5.1e-4 c 0.0815,0.0172 0.2319,0.0312 0.45061,0.0444 0.2248,0.0125 0.51563,0.0246 0.87024,0.0336 0.35489,0.008 0.6975,-0.009 1.02681,-0.0512 0.27931,-0.036 0.55029,-0.0907 0.81183,-0.16381 -0.26527,-0.33519 -0.49184,-0.63325 -0.67954,-0.89297 -0.21006,-0.28978 -0.3715,-0.53274 -0.48318,-0.72605 -0.11281,-0.19314 -0.21946,-0.39519 -0.31884,-0.60358 l 5.2e-4,-5.2e-4 c -0.0719,-0.14994 -0.14104,-0.30511 -0.20774,-0.46457 z"
           sodipodi:nodetypes="ccccccssccccccccccscccccccsscccccccccscccccccccccccsscccccscccccccccccccscccccccccccscsscccccccccccccccccccscccccccscccccccccccccccccscsccccccccccccccsscccccccccccscccsscccccccccccccccccccscccssccsccccccccscccccccscccccccccccsscsscccccccccccsscccccccccccccccccccccccccccscccccccccccccsscccccccccccccccscccscccccccccccccccccccccccccscccscccccccccccccccccccsssccccccccccccccccccccccsscssccccccccccccccsccccscsccccccccccccccccccccccccccscccccccccccccscccccccccccscsscccccccscccccccssccccccccccccccccccccccccccssccccccccccccccscccccccccccccccsccccccccccccccccs" /><path
           id="rect720"
           style="fill:#ffffff;fill-opacity:1;stroke-width:1.69498"
           transform="rotate(90)"
           d="m 86.333108,-232.07538 c 0.658758,0 1.189095,3.17617 1.189095,3.83493 v 190.870747 c 0,0.658759 -0.530337,3.834928 -1.189095,3.834928 -0.658759,0 -1.189096,-3.176169 -1.189096,-3.834928 V -228.24045 c 0,-0.65876 0.530337,-3.83493 1.189096,-3.83493 z"
           sodipodi:nodetypes="sssssss" /><path
           d="m 97.59071,156.36789 c -1.447775,-0.59934 -0.134764,-3.7145 1.741918,-3.4834 0.341034,0.0424 0.826542,0.0624 1.077782,-0.23308 0.18058,-0.21167 0.0327,-0.67837 -0.18553,-0.73734 -3.885137,-1.03542 -3.565948,-10.18896 1.15014,-10.82351 0.8965,-0.12054 1.85055,-0.0216 2.38335,0.53222 0.62442,0.64812 0.0162,1.28594 -0.64431,0.63798 -0.56992,-0.56392 -0.45682,-0.62868 -1.36652,-0.54472 -0.59287,0.0549 -1.27064,0.20284 -1.67148,0.84089 -0.288553,0.45976 -0.575369,1.11596 -0.720946,1.63972 -0.142342,0.51668 -0.142342,0.74168 0.403222,0.96547 1.246014,0.51142 4.333764,-0.0447 3.478624,1.62745 -0.349,0.68446 -1.16004,0.29182 -1.6732,-0.0631 -1.38726,-0.9596 -2.335226,-0.12809 -2.662636,1.36877 -0.212961,0.97301 0.30752,1.22415 0.637741,1.15527 0.345871,-0.0715 0.663745,-0.17342 0.991225,-0.3454 0.23758,-0.12503 0.64492,-0.64186 1.08123,-0.69239 0.32422,-0.0374 0.63818,0.0824 0.48162,0.95809 -0.0901,0.50387 -0.0519,1.30476 1.62694,1.57883 0.22578,0.15643 0.31302,0.58732 0.22405,0.89332 -0.15381,0.53565 -0.89161,0.73673 -1.33893,0.96935 0.43585,1.66311 -2.208,2.16508 -3.551395,1.54889 -1.236489,-0.18599 -1.2832,1.32054 -1.462895,2.20668 z m 17.73609,-3.39533 c 0.63369,-0.78747 3.26873,0.70458 4.03959,1.05965 0.13543,0.0633 0.18118,0.35103 0.0739,0.46593 -0.88402,0.95138 -2.52119,-0.84127 -3.50414,-0.65169 -0.63345,0.12054 -1.13263,-0.22699 -0.60953,-0.87389 z m -12.92631,12.48205 c 0.46906,-0.0183 0.53781,-1.10795 -0.0518,-1.15245 -0.91939,-0.0696 -1.61918,0.0725 -2.3101,-1.08532 -0.364838,-0.6104 0.27187,-0.99617 -0.447945,-1.8603 -0.711062,-0.85491 -1.650841,-1.14994 -2.194662,-1.52162 -0.792494,-0.54296 -0.255933,-1.46767 -0.173648,-1.75378 0.152234,-0.53222 -0.371736,-1.51925 -0.594621,-1.04128 -2.165096,1.27604 -0.589463,3.60502 0.832414,4.90437 0.810109,0.71905 -0.475368,0.93804 0.175356,1.96827 0.284042,0.44971 1.813429,2.84261 4.074836,2.03548 0.23758,-0.0849 0.44946,-0.28947 0.6898,-0.49337 z m 10.34934,-20.18429 c 0.14199,-0.34342 0.70587,-0.34273 0.30674,-1.0419 -2.18941,-3.85295 0.55876,-3.22335 0.55876,-5.28062 0.0247,-0.55813 -0.33006,-0.72507 -0.7076,-0.89316 -0.58138,-0.24077 -1.287,0.34951 -1.7285,0.17304 -0.73632,-0.29442 -1.12378,-1.28168 -1.78598,-1.24754 -0.69095,0.0357 -1.28467,0.60949 -1.87025,0.15117 -1.32224,-0.95206 -0.30367,-0.51531 -2.61186,-0.51706 -0.84903,-3.5e-4 -1.66934,1.19466 -2.06181,2.89511 -0.16721,0.72393 -0.78835,0.75098 -1.04127,0.46479 -0.22616,-0.25594 -0.37145,-2.08836 0.63131,-3.09032 0.70753,-0.70671 1.86457,-0.90413 2.6398,-1.33913 1.28379,-0.71943 2.53051,-0.86245 4.1463,-0.20779 1.01184,0.40971 1.66804,1.15032 2.09222,2.03243 0.26501,0.55166 1.49091,-0.43865 2.42313,0.17967 0.65376,0.16611 0.94082,0.29701 1.17954,1.11451 0.27337,0.93872 -0.20803,1.94884 -0.56659,3.02098 -0.0254,0.0715 -0.0961,0.1296 -0.0693,0.21213 0.36149,1.64733 1.97471,-0.74451 2.86131,-2.05575 0.57689,-0.85247 1.20089,-1.04692 2.24952,-0.92813 0.62442,0.0724 1.24082,0.36658 1.78036,1.13356 0.4475,0.63363 0.7093,1.21142 -0.28688,1.31276 -0.70449,0.0717 -1.81536,0.0894 -2.94491,-0.92379 -0.67409,-0.54106 -0.96027,1.17493 -0.9711,1.53114 -0.13885,2.00256 -3.11368,2.01292 -3.43954,4.26593 -0.0911,0.63067 -0.007,0.38791 -0.56141,1.0713 -0.28868,0.35248 -0.52155,0.27278 -0.44232,-0.18386 0.17696,-1.03457 0.1234,-0.5931 0.0923,-1.35116 -0.007,-0.12442 0.0487,-0.30867 0.1282,-0.49831 z m -1.17987,9.90429 c -0.66135,-0.0599 -1.71608,-0.7167 -2.35232,-1.58166 -0.44238,-0.60133 -0.7475,-1.20975 -0.94689,-1.83615 -3.34687,-0.89956 -4.26963,-2.84063 -4.32015,-3.15897 -0.007,-0.0452 0.71638,-0.10713 1.0717,0.35011 0.95726,1.232 2.97974,1.53153 2.96986,1.43064 -0.0771,-0.78572 -0.0389,-1.61099 0.0632,-2.49355 0.0533,-0.45009 0.26963,-0.54579 -0.0648,-0.80082 -1.75292,-1.34842 -2.62096,-0.21883 -3.31061,-0.97217 -0.94237,-1.03069 -0.36329,-2.37629 0.96654,-1.74624 0.26695,0.1255 0.67497,0.9961 1.43288,1.19955 0.71014,0.19223 0.7391,-0.043 0.65938,-0.72508 -0.17018,-1.47773 0.30751,-4.02744 0.36928,-4.53048 0.0865,-0.71258 0.30826,-0.93134 0.94869,-0.81339 0.65617,0.12154 1.43779,0.53413 1.77539,1.14834 0.14884,0.27156 0.10234,0.73803 -0.11797,1.04738 -1.15178,1.60733 -1.80385,2.19868 -1.1678,3.43007 0.18744,0.36025 -0.10385,1.20518 0.17728,1.76331 0.27114,0.53862 1.14278,0.005 1.62193,-0.49573 0.48725,-0.50989 0.89305,-0.009 0.45134,0.64515 -0.34082,0.50326 -1.64088,1.17264 -1.86136,1.71728 -0.35161,0.87 0.0388,4.81416 1.14194,3.32988 0.96654,-1.30065 2.01429,-2.11236 4.15209,-1.94428 0.45254,0.0356 0.30776,0.45314 -0.17364,0.41466 -1.00951,-0.0805 -3.57064,1.34408 -3.08194,2.72123 0.18211,0.51622 0.7692,0.32352 0.56226,1.16441 -0.17046,0.69178 -0.43677,0.78679 -0.96608,0.73651 z m 10.37749,6.50027 c -0.54155,-0.29243 -0.56441,-0.55272 -0.31951,-1.05248 0.25594,-0.52659 1.39876,-0.17929 1.80781,-0.10629 2.21583,0.10088 1.48512,-1.50325 2.38887,-2.05879 1.12243,-1.93696 -0.0671,5.2759 -3.87717,3.21756 z m 1.51444,-4.37847 c 1.04972,-1.04426 2.4886,-2.89206 0.72704,-4.27005 -0.35599,-0.2775 -0.2831,-1.14079 0.21981,-1.16068 1.24912,-0.0481 3.14527,0.23347 3.26211,1.79638 0.18573,2.48251 -2.85514,3.39525 -2.76575,3.91772 0.11885,0.69528 -0.74813,0.75616 -1.31942,0.36048 -0.23439,-0.16199 -0.28617,-0.43584 -0.12379,-0.64385 z m -3.72145,-2.17629 c 1.20526,-3.3093 -2.65984,-6.3638 -3.21166,-6.51581 -0.25883,-0.0713 -0.14474,-0.62534 0.3145,-0.56484 3.35333,1.62532 2.62199,0.65787 2.19869,-2.39595 -0.061,-0.733 -0.0335,-2.90502 0.80758,-2.74363 0.28441,0.054 -0.35338,3.05405 0.51259,3.7491 0.43995,0.35332 0.52518,-1.3802 0.87319,-1.66159 0.44792,-0.36223 0.82113,0.18402 0.62417,0.77757 -0.80327,2.41531 0.56522,8.11279 -0.98185,10.24763 -0.6229,0.8594 -1.83088,1.01278 -1.13721,-0.89248 z m 2.46986,-2.94692 c -0.45204,0.129 -0.69913,-0.55828 -0.15035,-0.78442 0.38361,-0.15895 1.3486,-1.00563 1.6927,-1.1955 0.3127,-0.17015 0.27862,-0.56194 0.11405,-0.82741 -0.16503,-0.26615 -0.51904,-0.4372 -0.54409,-0.67432 -0.0648,-0.61947 1.16759,-0.54731 1.00411,-1.78624 -0.18485,-1.40298 -0.66177,-1.23345 -0.50193,-2.36761 0.13624,-0.96585 -1.52901,-1.83569 -1.69421,-2.08424 -0.30946,-0.45831 0.28635,-0.98452 0.64495,-0.59615 3.23606,0.72461 3.95619,3.37803 2.42654,5.12275 1.20259,2.29575 -0.79502,4.56705 -2.99177,5.19314 z m -4.11864,21.67011 c 0.71769,-0.74618 0.68139,-6.4906 0.25545,-7.72473 -0.14207,-0.41229 -0.29521,-0.4622 -0.67536,-0.31164 -1.55081,0.62289 -1.86916,0.77757 -3.76876,0.54967 -1.2531,-0.14881 -1.64645,-0.28276 -1.78594,1.1475 -0.0817,0.84516 -0.14326,2.58949 0.0864,3.64997 0.31598,1.44519 1.37212,1.34949 2.41384,1.27543 0.56568,0.0367 1.51388,0.31964 2.97582,1.1417 0.95275,0.53581 -0.33905,0.81125 -1.48678,0.58922 -1.93012,-0.37328 -1.97111,1.77146 -4.47699,0.5339 -0.29094,-0.14363 -0.65423,0.2423 -0.77432,0.85872 -0.11052,0.5672 -1.13478,0.19506 -1.36528,-0.20428 -0.23753,-0.41237 -0.53259,-0.79418 -1.07552,-0.64324 -1.9139,0.53245 -1.64937,-0.62528 -2.94007,0.19813 -0.39317,0.25082 -1.00473,-0.3068 -1.48817,-0.79276 0.99071,0.87243 1.97633,-0.88919 3.11037,-1.30347 0.5055,-0.18439 1.37739,-0.35179 1.63636,-0.51294 0.29531,-0.23133 0.48617,-0.21899 0.50606,-0.66305 0.1663,-3.55016 -0.0457,-5.89948 -1.23825,-5.79905 -2.52575,0.21319 -2.67973,-1.0374 -4.04558,-0.0639 -0.60724,0.43439 -1.73137,-0.97972 -0.18839,-2.05316 0.77541,-0.4948 1.80302,-0.72072 2.76201,-0.56871 0.87153,0.13715 1.43697,0.29182 1.82615,0.92317 0.21558,0.35012 0.8333,0.21686 1.02034,-0.14903 0.27714,-0.54449 0.19008,-0.41237 0.064,-1.49853 -0.87432,-0.16931 -1.22219,-0.85445 -1.74561,-1.15832 -0.14637,-0.0849 -3.38924,0.38227 -4.23178,-0.53131 -0.24038,-0.2605 -0.22744,-0.45099 0.13479,-0.42097 2.53785,0.65375 3.23607,0.37495 3.05076,0.10431 -0.56582,-0.82657 -0.59842,-1.40306 -0.32026,-1.07192 1.00824,1.19977 3.25657,1.7307 3.22231,1.56261 -0.25855,-1.26697 -0.0169,-3.7763 -1.23892,-4.69316 -0.60843,-0.45702 -2.24472,0.5419 -2.13593,1.43529 0.0353,0.28611 0.22635,0.31011 -0.0503,0.51036 -1.80732,1.30217 -2.10774,-3.00331 -3.99877,-0.36978 -0.48548,0.99328 -0.1166,3.70133 -2.952048,2.24364 -0.962194,-2.66134 0.751191,-3.33377 2.545658,-3.75512 0.36084,-0.0846 -0.35338,-0.72919 0.045,-1.49617 0.1527,-0.17989 0.33792,-0.15025 0.40304,0.0653 0.22285,1.12594 1.28591,1.42721 1.45567,1.14385 0.42383,-0.7074 1.33456,0.96066 1.84457,1.10558 -0.10089,-0.49763 2.36072,-3.34557 3.31625,-1.84102 1.28859,-0.26935 1.74879,-0.29267 2.4916,1.08768 0.49826,1.74152 0.69077,2.38773 1.29441,2.86334 1.01399,0.79875 2.40828,0.28382 2.38986,-0.4158 -0.0275,-0.81468 -1.52986,-1.81794 -0.29711,-2.00324 0.11158,-0.0166 0.85288,-0.0399 1.70558,1.69998 0.45878,0.72035 0.61468,1.09097 2.03196,1.67477 1.36035,0.59745 2.60636,-2.85312 2.66919,-3.6566 0.12029,-0.76264 0.89097,-0.77155 1.25179,0.0792 0.15036,0.35743 -0.35528,2.01971 -0.53061,2.7268 -0.71187,2.8711 -1.17884,4.34136 0.47449,4.5208 0.80758,0.0895 1.78385,-1.41486 3.11693,-1.54386 0.86914,-0.0849 1.03632,0.0683 0.86822,0.55638 -0.48009,2.14328 -4.57415,2.27563 -5.10109,3.96039 -1.53833,2.32745 -0.11822,7.23159 3.49267,7.86355 0.23537,1.38043 -3.36035,0.3825 -5.42572,0.61733 -0.79315,0.0896 -2.22882,-0.28451 -1.12099,-1.44282 z m -2.22878,-8.81805 c -1.82876,-0.15377 -1.1086,-1.48664 -1.27734,-1.91471 -0.31362,-0.79091 -1.11901,0.47408 -1.85078,0.38531 -0.99631,-0.12068 -0.6974,-0.6795 -0.87132,-1.82029 -0.10795,-0.71189 -0.35761,-0.73848 0.63697,-0.47668 0.80321,0.21205 1.34624,-0.44345 1.93326,-1.00349 0.7052,-0.67478 2.34608,-0.3953 3.11775,0.96608 0.47801,1.15276 -0.32826,1.41167 -0.80642,1.30629 -0.28536,-0.0629 -0.39684,0.4929 0.27429,0.67494 0.42414,0.14408 1.06588,0.40802 1.24474,0.65169 0.36583,0.49542 -0.0184,0.7909 -0.41018,1.02025 -0.81195,0.47843 -1.18406,0.1821 -1.99097,0.21061 z"
           style="fill:#ffffff;fill-opacity:1;fill-rule:evenodd;stroke-width:0.761951"
           id="path722"
           sodipodi:nodetypes="cccccccccccccccccsccccccsccccscccccccsccscscccccccscccccccccccsccccccccscccccccccccccccccccccscccssccccccccccccccccccsccccccscccccccccccccccccscccscccccccccccccccscccccccccccccccccccscccccccccccccccsccccc" /><path
           d="m 150.43821,140.95547 v -3.70674 l 18.87206,7.1e-4 -0.0435,3.70595 z m 7.31202,5.7535 0.009,-3.17409 4.86848,-0.005 -0.008,3.13119 z m 4.77231,30.25571 -0.62586,0.0199 -3.24612,-25.4595 -8.73305,21.31697 -0.63705,-0.006 7.71081,-23.98174 h -1.91735 v -5.31589 h -6.14599 l -1.15101,-1.20321 -0.0748,-5.03725 h -4.40898 l -0.089,-2.78016 h 33.6187 l -0.0141,2.7792 -4.11346,7.1e-4 -0.0714,4.93483 -1.18798,1.20895 h -6.17156 l -0.0339,5.17979 -2.00769,0.0379 4.94249,21.61989 -0.64605,0.0573 -5.57657,-18.70258 z"
           style="fill:#ffffff;fill-opacity:1;fill-rule:evenodd;stroke-width:0.870186"
           id="path890"
           sodipodi:nodetypes="ccccccccccccccccccccccccccccccccccc" /><path
           id="path1146"
           style="color:#000000;fill:#ffffff;fill-opacity:1;stroke-width:0.35166"
           d="m 82.567052,117.35356 a 1.3497988,1.418 0 0 0 -1.349788,1.418 1.3497988,1.418 0 0 0 1.349788,1.418 h 50.272388 v -2.836 z" /><path
           style="color:#000000;fill:#ffffff;fill-opacity:1;stroke-width:0.443967"
           d="m 92.741143,182.06465 v 2.836 h 80.127837 v -2.836 z"
           id="path1148" /><path
           id="path1719"
           style="color:#000000;fill:#ffffff;fill-opacity:1"
           d="M 74.972684,86.333747 V 184.0053 h -5.17e-4 c 0.07658,3.74147 -3.227242,10.835 0.59893,10.835 3.826172,0 0.522868,-7.09353 0.599446,-10.835 h -5.16e-4 V 86.333747 Z" /><path
           id="path894"
           style="color:#000000;fill:#ffffff;fill-opacity:1;stroke-width:0.352778"
           d="m 172.66181,85.793729 -2.62258,1.079003 c 3.2209,7.825257 8.80613,12.335376 15.02957,15.460558 v 53.94141 c -0.25245,11.27294 -8.58417,23.15952 -19.36625,32.49879 -10.70495,9.27245 -23.7856,15.98719 -32.86311,17.41185 -9.0775,-1.42481 -22.1573,-8.13955 -32.862081,-17.41185 -10.785368,-9.34211 -19.119705,-21.23312 -19.367293,-32.50913 v -28.71091 h 52.229374 v -2.836 H 80.610066 a 2.836,2.836 0 0 0 -2.836003,2.836 v 28.7569 l 0.001,0.016 c 0.276671,12.60053 9.213921,24.94909 20.345011,34.59066 11.131136,9.64158 24.490946,16.61654 34.510556,18.11104 l 0.20878,-1.4025 0.20928,1.4025 c 10.01968,-1.4945 23.38001,-8.46946 34.51108,-18.11104 11.13109,-9.64157 20.06836,-21.99013 20.34501,-34.59066 v -0.016 -55.73303 l -0.8046,-0.38602 c -6.19556,-2.968579 -11.37689,-6.959558 -14.4384,-14.397571 z" /><path
           id="rect718"
           style="fill:#ffffff;fill-opacity:1;stroke-width:1.81219"
           d="m 132.80506,55.950401 c 0.79205,0 1.4297,2.030324 1.4297,2.822375 V 240.79186 c 0,0.79205 -0.63765,3.914 -1.4297,3.914 -0.79205,0 -1.42969,-3.12195 -1.42969,-3.914 V 58.772776 c 0,-0.792051 0.63764,-2.822375 1.42969,-2.822375 z"
           sodipodi:nodetypes="sssssss" /><path
           id="path1728"
           style="fill:#ffffff;fill-opacity:1;stroke:none;stroke-width:0.264583px;stroke-linecap:butt;stroke-linejoin:miter;stroke-opacity:1"
           d="M 83.020255,86.333231 V 189.30886 h -5.17e-4 c 0.07658,3.74146 -3.227243,10.83499 0.59893,10.83499 3.826172,0 0.522867,-7.09353 0.599446,-10.83499 h -0.001 V 86.333231 Z" /><path
           id="path1730"
           style="fill:#ffffff;fill-opacity:1;stroke:none;stroke-width:0.264583px;stroke-linecap:butt;stroke-linejoin:miter;stroke-opacity:1"
           d="M 91.067308,86.333231 V 198.64162 h -5.16e-4 c 0.07658,3.74147 -3.227243,10.835 0.59893,10.835 3.826172,0 0.522867,-7.09353 0.599446,-10.835 h -5.17e-4 V 86.333231 Z" /></g><path
         id="path1769"
         style="color:#000000;fill:#ffffff;fill-opacity:1;stroke-width:1.07989"
         d="m 78.327547,57.517966 c -0.80383,0.0052 -1.626993,0.02024 -2.471609,0.04464 -19.540965,0.564608 -39.317108,5.309943 -54.687881,10.978538 -2.863165,1.077299 -6.233781,2.354359 -10.051056,4.101674 -4.6588349,2.132528 -0.398453,2.019529 8.559386,0.0033 -6.304783,0.607808 -12.8480059,2.220067 -5.928733,-0.316414 16.996512,-6.230622 41.230857,-12.354269 62.367779,-12.611395 15.357591,-0.186822 23.568011,3.067138 32.915517,7.37576 6.06717,2.796592 17.77644,7.082508 26.43599,7.082508 8.65956,0 20.36881,-4.285916 26.436,-7.082508 9.34751,-4.308622 17.55738,-7.562582 32.91496,-7.37576 21.13692,0.257126 45.37126,6.380773 62.36778,12.611395 6.91926,2.536481 0.37605,0.924222 -5.92873,0.316414 8.95783,2.016181 13.21821,2.12918 8.55938,-0.0033 -3.81728,-1.747315 -7.1879,-3.024375 -10.05105,-4.101674 -15.37078,-5.668595 -35.14692,-10.41393 -54.68789,-10.978538 -13.51384,-0.390462 -21.47856,1.622633 -34.40664,7.867403 -5.91138,2.855437 -16.87497,6.775704 -25.20381,6.775704 -8.32884,0 -19.29298,-3.920267 -25.20437,-6.775704 C 98.142504,59.575539 90.384994,57.44026 78.327547,57.517963 Z"
         sodipodi:nodetypes="sscscssssssscscssssss" /><path
         style="fill:#ffffff;fill-opacity:1;stroke:none;stroke-width:0.285722px;stroke-linecap:butt;stroke-linejoin:miter;stroke-opacity:1"
         d="m 32.748251,65.816852 c -19.25182,10.025124 -19.387625,13.758319 -0.08636,6.410061 -20.70208,5.971676 -13.224722,2.452463 0.08636,-6.410061 z"
         id="path1860"
         sodipodi:nodetypes="ccc" /><path
         style="fill:#ffffff;fill-opacity:1;stroke:none;stroke-width:0.285722px;stroke-linecap:butt;stroke-linejoin:miter;stroke-opacity:1"
         d="M 57.707034,61.65185 C 24.435925,77.256108 26.950251,83.86774 42.833898,74.728463 21.88592,83.517072 40.120389,72.141263 57.707034,61.65185 Z"
         id="path1862"
         sodipodi:nodetypes="ccc" /><path
         style="fill:#ffffff;fill-opacity:1;stroke:none;stroke-width:0.285722px;stroke-linecap:butt;stroke-linejoin:miter;stroke-opacity:1"
         d="M 63.027897,61.408258 C 40.741053,76.271021 33.775569,88.535823 47.554706,78.278244 30.545563,87.638302 59.665462,63.983845 63.027897,61.408258 Z"
         id="path1864"
         sodipodi:nodetypes="ccc" /><path
         style="fill:#ffffff;fill-opacity:1;stroke:none;stroke-width:0.285722px;stroke-linecap:butt;stroke-linejoin:miter;stroke-opacity:1"
         d="m 63.874879,64.927885 c -22.990547,12.451983 -14.615907,18.257063 -9.590915,13.697606 -11.844799,2.3434 6.22848,-11.122019 9.590915,-13.697606 z"
         id="path1866"
         sodipodi:nodetypes="ccc" /><path
         style="fill:#ffffff;fill-opacity:1;stroke:none;stroke-width:0.285722px;stroke-linecap:butt;stroke-linejoin:miter;stroke-opacity:1"
         d="m 63.837071,67.555467 c -11.941416,14.627825 -5.604639,19.363121 -0.295041,12.58848 -10.253238,5.993612 -1.924924,-9.74168 0.295041,-12.58848 z"
         id="path1868"
         sodipodi:nodetypes="ccc" /><path
         style="fill:#ffffff;fill-opacity:1;stroke:none;stroke-width:0.285722px;stroke-linecap:butt;stroke-linejoin:miter;stroke-opacity:1"
         d="m 69.077868,68.624972 c -8.609294,11.97792 -2.855197,14.400132 -1.440237,14.138505 -4.96124,-1.217523 -0.779729,-11.291705 1.440237,-14.138505 z"
         id="path1870"
         sodipodi:nodetypes="ccc" /><path
         style="fill:#ffffff;fill-opacity:1;stroke:none;stroke-width:0.285722px;stroke-linecap:butt;stroke-linejoin:miter;stroke-opacity:1"
         d="M 70.540163,69.268074 C 58.723842,83.112657 65.742934,83.425822 67.163221,82.676172 60.560142,82.237099 68.320197,72.114874 70.540163,69.268074 Z"
         id="path1872"
         sodipodi:nodetypes="ccc" /><path
         style="fill:#ffffff;fill-opacity:1;stroke:none;stroke-width:0.285722px;stroke-linecap:butt;stroke-linejoin:miter;stroke-opacity:1"
         d="M 75.018694,69.976187 C 62.308799,84.029119 70.563782,85.074172 73.978584,84.140342 63.952039,84.430986 72.798729,72.822987 75.018694,69.976187 Z"
         id="path1874"
         sodipodi:nodetypes="ccc" /><path
         style="fill:#ffffff;fill-opacity:1;stroke:none;stroke-width:0.285722px;stroke-linecap:butt;stroke-linejoin:miter;stroke-opacity:1"
         d="M 73.197015,72.58263 C 66.632942,80.018289 70.46888,84.064288 73.978584,84.140342 68.71085,82.336238 69.469907,77.141499 73.197015,72.58263 Z"
         id="path1876"
         sodipodi:nodetypes="ccc" /><path
         style="fill:#ffffff;fill-opacity:1;stroke:none;stroke-width:0.285722px;stroke-linecap:butt;stroke-linejoin:miter;stroke-opacity:1"
         d="m 78.397866,73.551377 c -6.564074,7.43566 -3.305537,11.651535 0.0632,12.608142 -3.903299,-2.767919 -3.39955,-8.097907 -0.0632,-12.608142 z"
         id="path1878"
         sodipodi:nodetypes="ccc" /><path
         style="fill:#ffffff;fill-opacity:1;stroke:none;stroke-width:0.285722px;stroke-linecap:butt;stroke-linejoin:miter;stroke-opacity:1"
         d="m 81.483848,73.928617 c -6.190188,7.569331 -2.751221,12.231204 0.188285,13.478435 -3.695246,-2.959201 -3.524639,-8.9682 -0.188285,-13.478435 z"
         id="path1880"
         sodipodi:nodetypes="ccc" /><path
         style="fill:#ffffff;fill-opacity:1;stroke:none;stroke-width:0.285722px;stroke-linecap:butt;stroke-linejoin:miter;stroke-opacity:1"
         d="M 81.483848,73.928617 C 76.091643,80.83482 79.771712,85.044381 82.711217,86.291612 79.015971,83.33241 78.147494,78.438852 81.483848,73.928617 Z"
         id="path1882"
         sodipodi:nodetypes="ccc" /><path
         style="fill:#ffffff;fill-opacity:1;stroke:none;stroke-width:0.285722px;stroke-linecap:butt;stroke-linejoin:miter;stroke-opacity:1"
         d="m 83.873004,74.176112 c -6.921276,9.863592 1.431069,18.888054 8.34071,20.712277 -6.893883,-3.375405 -12.904036,-11.616275 -8.34071,-20.712277 z"
         id="path1900"
         sodipodi:nodetypes="ccc" /><path
         style="fill:#ffffff;fill-opacity:1;stroke:none;stroke-width:0.285722px;stroke-linecap:butt;stroke-linejoin:miter;stroke-opacity:1"
         d="m 83.873004,74.176112 c -6.99948,9.924735 3.26641,18.359964 10.8896,19.626314 C 86.72643,90.685785 78.797095,83.38823 83.873004,74.176112 Z"
         id="path1902"
         sodipodi:nodetypes="ccc" /><path
         style="fill:#ffffff;fill-opacity:1;stroke:none;stroke-width:0.285722px;stroke-linecap:butt;stroke-linejoin:miter;stroke-opacity:1"
         d="m 90.873894,82.442104 c -0.57444,6.870422 3.66359,10.509548 6.08339,12.046443 -3.73548,-4.100143 -5.1885,-6.807249 -6.08339,-12.046443 z"
         id="path1904"
         sodipodi:nodetypes="ccc" /><path
         style="fill:#ffffff;fill-opacity:1;stroke:none;stroke-width:0.285722px;stroke-linecap:butt;stroke-linejoin:miter;stroke-opacity:1"
         d="m 94.302694,79.638037 c -1.99873,5.901925 0.10364,13.187775 8.411446,17.541852 -4.503636,-3.907897 -8.967906,-10.036413 -8.411446,-17.541852 z"
         id="path1906"
         sodipodi:nodetypes="ccc" /><path
         style="fill:#ffffff;fill-opacity:1;stroke:none;stroke-width:0.285722px;stroke-linecap:butt;stroke-linejoin:miter;stroke-opacity:1"
         d="m 98.789914,79.653031 c -1.99873,5.901925 -3.05444,11.792859 3.924226,17.526858 -3.525516,-5.984405 -5.167376,-8.702748 -3.924226,-17.526858 z"
         id="path1908"
         sodipodi:nodetypes="ccc" /><path
         style="fill:#ffffff;fill-opacity:1;stroke:none;stroke-width:0.285722px;stroke-linecap:butt;stroke-linejoin:miter;stroke-opacity:1"
         d="m 102.43314,81.374897 c -1.99873,5.901925 -1.31206,11.581917 5.66662,17.315922 C 104.0413,93.11477 101.19,90.199012 102.43314,81.374897 Z"
         id="path1910"
         sodipodi:nodetypes="ccc" /><path
         style="fill:#ffffff;fill-opacity:1;stroke:none;stroke-width:0.285722px;stroke-linecap:butt;stroke-linejoin:miter;stroke-opacity:1"
         d="m 102.43314,81.374897 c -1.99873,5.901925 0.6255,12.28143 7.826,16.641092 -4.6666,-4.542532 -8.43353,-7.734949 -7.826,-16.641092 z"
         id="path1912"
         sodipodi:nodetypes="ccc" /><path
         style="fill:#ffffff;fill-opacity:1;stroke:none;stroke-width:0.285722px;stroke-linecap:butt;stroke-linejoin:miter;stroke-opacity:1"
         d="m 104.92023,81.683639 c -0.9369,6.908792 -0.11992,18.553641 11.06912,16.27696 -8.62053,-0.30511 -10.7461,-7.267719 -11.06912,-16.27696 z"
         id="path1914"
         sodipodi:nodetypes="ccc" /><path
         style="fill:#ffffff;fill-opacity:1;stroke:none;stroke-width:0.285722px;stroke-linecap:butt;stroke-linejoin:miter;stroke-opacity:1"
         d="m 109.55917,83.630121 c -0.50692,4.942775 1.66891,11.934595 7.9457,12.210584 -4.40222,-3.160527 -7.48373,-6.393678 -7.9457,-12.210584 z"
         id="path1916"
         sodipodi:nodetypes="ccc" /><path
         style="fill:#ffffff;fill-opacity:1;stroke:none;stroke-width:0.285722px;stroke-linecap:butt;stroke-linejoin:miter;stroke-opacity:1"
         d="m 114.83317,85.638965 c -0.50692,4.942772 0.7466,10.562349 6.49924,12.532024 -4.40223,-3.160528 -6.02025,-6.510318 -6.49924,-12.532024 z"
         id="path1934"
         sodipodi:nodetypes="ccc" /><path
         style="fill:#ffffff;fill-opacity:1;stroke:none;stroke-width:0.285722px;stroke-linecap:butt;stroke-linejoin:miter;stroke-opacity:1"
         d="m 118.46232,85.692817 c -0.50693,4.942774 -0.41457,9.65943 4.6066,11.664812 -3.83231,-3.212142 -4.40999,-5.724863 -4.6066,-11.664812 z"
         id="path1936"
         sodipodi:nodetypes="ccc" /><path
         style="fill:#ffffff;fill-opacity:1;stroke:none;stroke-width:0.285722px;stroke-linecap:butt;stroke-linejoin:miter;stroke-opacity:1"
         d="m 121.31982,87.139843 c -0.76447,5.466221 -0.6099,8.52701 4.01744,10.355206 -3.49245,-3.099977 -3.91053,-4.088513 -4.01744,-10.355206 z"
         id="path1938"
         sodipodi:nodetypes="ccc" /><path
         style="fill:#ffffff;fill-opacity:1;stroke:none;stroke-width:0.285722px;stroke-linecap:butt;stroke-linejoin:miter;stroke-opacity:1"
         d="m 123.74092,87.62758 c -0.11029,5.692791 -0.21088,8.437581 4.41645,10.265779 -3.83077,-3.172105 -3.84301,-3.894177 -4.41645,-10.265779 z"
         id="path1956"
         sodipodi:nodetypes="ccc" /><path
         style="fill:#ffffff;fill-opacity:1;stroke:none;stroke-width:0.285722px;stroke-linecap:butt;stroke-linejoin:miter;stroke-opacity:1"
         d="m 123.74092,87.62758 c -0.70936,6.080776 5.24993,15.76312 4.75868,1.697743 -0.33208,11.334577 -4.18524,4.673859 -4.75868,-1.697743 z"
         id="path1958"
         sodipodi:nodetypes="ccc" /><path
         style="fill:#ffffff;fill-opacity:1;stroke:none;stroke-width:0.285722px;stroke-linecap:butt;stroke-linejoin:miter;stroke-opacity:1"
         d="m 72.979618,59.486925 c -7.399173,0.920657 -6.390207,5.862991 -3.497252,7.181612 -2.509575,-2.600201 -1.976073,-5.266317 3.497252,-7.181612 z"
         id="path1962"
         sodipodi:nodetypes="ccc" /><path
         style="fill:#ffffff;fill-opacity:1;stroke:none;stroke-width:0.285722px;stroke-linecap:butt;stroke-linejoin:miter;stroke-opacity:1"
         d="m 72.979618,59.486925 c -7.399173,0.920657 -8.402626,7.130697 -3.497252,7.181612 -4.418362,-1.499509 -1.976073,-5.266317 3.497252,-7.181612 z"
         id="path1964"
         sodipodi:nodetypes="ccc" /><path
         style="fill:#ffffff;fill-opacity:1;stroke:none;stroke-width:0.285722px;stroke-linecap:butt;stroke-linejoin:miter;stroke-opacity:1"
         d="m 75.570696,61.191632 c -7.400916,0.924426 -8.163325,5.432994 -3.257951,5.483909 -3.538874,-1.413708 -2.66014,-3.715171 3.257951,-5.483909 z"
         id="path1966"
         sodipodi:nodetypes="ccc" /><path
         style="fill:#ffffff;fill-opacity:1;stroke:none;stroke-width:0.285722px;stroke-linecap:butt;stroke-linejoin:miter;stroke-opacity:1"
         d="m 77.958597,61.12669 c -7.413194,1.249699 -4.615236,5.420019 -0.539058,5.411431 -3.538874,-1.413708 -4.975632,-3.590795 0.539058,-5.411431 z"
         id="path1968"
         sodipodi:nodetypes="ccc" /><path
         style="fill:#ffffff;fill-opacity:1;stroke:none;stroke-width:0.285722px;stroke-linecap:butt;stroke-linejoin:miter;stroke-opacity:1"
         d="m 77.958597,61.12669 c -5.122185,1.855394 -2.85626,3.821133 -0.539058,5.411431 -1.9794,-2.148731 -3.81663,-3.186766 0.539058,-5.411431 z"
         id="path1970"
         sodipodi:nodetypes="ccc" /><path
         style="fill:#ffffff;fill-opacity:1;stroke:none;stroke-width:0.285722px;stroke-linecap:butt;stroke-linejoin:miter;stroke-opacity:1"
         d="m 79.679416,62.261208 c -6.080578,1.432794 -2.766295,4.762225 0.06525,4.88212 -1.877286,-0.812753 -4.357518,-2.571077 -0.06525,-4.88212 z"
         id="path1972"
         sodipodi:nodetypes="ccc" /><path
         style="fill:#ffffff;fill-opacity:1;stroke:none;stroke-width:0.285722px;stroke-linecap:butt;stroke-linejoin:miter;stroke-opacity:1"
         d="m 81.653732,62.569112 c -5.006406,1.756805 -0.49139,5.709178 0.888791,5.897983 -1.157291,-0.876247 -3.898124,-3.700077 -0.888791,-5.897983 z"
         id="path1974"
         sodipodi:nodetypes="ccc" /><path
         style="fill:#ffffff;fill-opacity:1;stroke:none;stroke-width:0.285722px;stroke-linecap:butt;stroke-linejoin:miter;stroke-opacity:1"
         d="m 84.085648,62.857834 c -4.586472,2.927526 1.167068,7.487825 2.823972,7.527492 -1.411134,-0.763172 -5.317527,-4.500462 -2.823972,-7.527492 z"
         id="path1976"
         sodipodi:nodetypes="ccc" /><path
         style="fill:#ffffff;fill-opacity:1;stroke:none;stroke-width:0.285722px;stroke-linecap:butt;stroke-linejoin:miter;stroke-opacity:1"
         d="m 84.990807,64.443605 c -3.766836,2.635038 0.261909,5.902054 1.918813,5.941721 -1.411134,-0.763172 -3.833111,-3.22127 -1.918813,-5.941721 z"
         id="path1978"
         sodipodi:nodetypes="ccc" /><path
         style="fill:#ffffff;fill-opacity:1;stroke:none;stroke-width:0.285722px;stroke-linecap:butt;stroke-linejoin:miter;stroke-opacity:1"
         d="m 88.354254,64.370012 c -3.76684,2.635038 -0.0176,6.000061 1.6393,6.039728 -1.41114,-0.763172 -3.553602,-3.319277 -1.6393,-6.039728 z"
         id="path1980"
         sodipodi:nodetypes="ccc" /><path
         style="fill:#ffffff;fill-opacity:1;stroke:none;stroke-width:0.285722px;stroke-linecap:butt;stroke-linejoin:miter;stroke-opacity:1"
         d="m 89.489184,64.304789 c -3.766834,2.635038 -0.90434,5.828183 0.50437,6.104951 -0.9903,-0.881758 -2.41867,-3.3845 -0.50437,-6.104951 z"
         id="path1982"
         sodipodi:nodetypes="ccc" /><path
         style="fill:#ffffff;fill-opacity:1;stroke:none;stroke-width:0.285722px;stroke-linecap:butt;stroke-linejoin:miter;stroke-opacity:1"
         d="m 91.507694,65.251718 c -3.76684,2.635037 0.36187,6.376328 1.77058,6.653096 -0.9903,-0.881757 -3.68488,-3.932645 -1.77058,-6.653096 z"
         id="path1984"
         sodipodi:nodetypes="ccc" /><path
         style="fill:#ffffff;fill-opacity:1;stroke:none;stroke-width:0.285722px;stroke-linecap:butt;stroke-linejoin:miter;stroke-opacity:1"
         d="m 92.518044,66.484173 c -3.76684,2.635038 -0.64848,5.143873 0.76023,5.420641 -0.9903,-0.881757 -2.67453,-2.70019 -0.76023,-5.420641 z"
         id="path1986"
         sodipodi:nodetypes="ccc" /><path
         style="fill:#ffffff;fill-opacity:1;stroke:none;stroke-width:0.285722px;stroke-linecap:butt;stroke-linejoin:miter;stroke-opacity:1"
         d="m 94.363514,67.380961 c -3.20571,3.437934 1.76286,7.659706 3.17157,7.936475 -0.99029,-0.881758 -4.71825,-4.929605 -3.17157,-7.936475 z"
         id="path1988"
         sodipodi:nodetypes="ccc" /><path
         style="fill:#ffffff;fill-opacity:1;stroke:none;stroke-width:0.285722px;stroke-linecap:butt;stroke-linejoin:miter;stroke-opacity:1"
         d="m 97.392084,68.790873 c -2.03809,3.605936 2.60336,7.233044 4.012066,7.509812 -1.36014,-0.926545 -4.521836,-4.553451 -4.012066,-7.509812 z"
         id="path1990"
         sodipodi:nodetypes="ccc" /><path
         style="fill:#ffffff;fill-opacity:1;stroke:none;stroke-width:0.285722px;stroke-linecap:butt;stroke-linejoin:miter;stroke-opacity:1"
         d="m 103.34592,71.313543 c -2.75727,4.87373 2.27111,7.819885 4.01208,7.509811 -1.8915,-0.425609 -5.44273,-3.68528 -4.01208,-7.509811 z"
         id="path1992"
         sodipodi:nodetypes="ccc" /><path
         style="fill:#ffffff;fill-opacity:1;stroke:none;stroke-width:0.285722px;stroke-linecap:butt;stroke-linejoin:miter;stroke-opacity:1"
         d="m 106.49584,72.084631 c -2.24583,4.946388 2.01084,7.445402 3.65088,7.120989 -1.76789,-0.425609 -4.716,-3.296458 -3.65088,-7.120989 z"
         id="path1994"
         sodipodi:nodetypes="ccc" /><path
         style="fill:#ffffff;fill-opacity:1;stroke:none;stroke-width:0.285722px;stroke-linecap:butt;stroke-linejoin:miter;stroke-opacity:1"
         d="m 110.81413,72.362493 c -3.40341,5.873844 2.10026,9.008857 4.00557,7.842875 -2.08261,0.22156 -5.74825,-3.098527 -4.00557,-7.842875 z"
         id="path1996"
         sodipodi:nodetypes="ccc" /><path
         style="fill:#ffffff;fill-opacity:1;stroke:none;stroke-width:0.285722px;stroke-linecap:butt;stroke-linejoin:miter;stroke-opacity:1"
         d="m 114.07649,72.672072 c -3.40341,5.873844 2.77257,9.056849 4.54047,7.736148 -2.25924,0.386045 -6.28315,-2.9918 -4.54047,-7.736148 z"
         id="path1998"
         sodipodi:nodetypes="ccc" /><path
         style="fill:#ffffff;fill-opacity:1;stroke:none;stroke-width:0.285722px;stroke-linecap:butt;stroke-linejoin:miter;stroke-opacity:1"
         d="m 117.3955,73.794312 c -2.58826,6.551769 2.16212,7.551346 4.3339,7.466932 -2.3545,-0.841598 -5.60822,-2.017997 -4.3339,-7.466932 z"
         id="path2000"
         sodipodi:nodetypes="ccc" /><path
         style="fill:#ffffff;fill-opacity:1;stroke:none;stroke-width:0.285722px;stroke-linecap:butt;stroke-linejoin:miter;stroke-opacity:1"
         d="m 120.19511,74.887116 c -0.0471,6.639662 3.25199,6.796581 5.42377,6.712167 -2.3545,-0.841598 -4.43833,-1.816516 -5.42377,-6.712167 z"
         id="path2002"
         sodipodi:nodetypes="ccc" /><path
         style="fill:#ffffff;fill-opacity:1;stroke:none;stroke-width:0.285722px;stroke-linecap:butt;stroke-linejoin:miter;stroke-opacity:1"
         d="m 123.24735,76.427938 c 0.48316,3.745751 2.38821,4.712591 4.55999,4.628176 -2.13421,-0.552354 -3.14265,-0.958454 -4.55999,-4.628176 z"
         id="path2004"
         sodipodi:nodetypes="ccc" /><path
         style="fill:#ffffff;fill-opacity:1;stroke:none;stroke-width:0.285722px;stroke-linecap:butt;stroke-linejoin:miter;stroke-opacity:1"
         d="m 126.62091,77.245343 c -0.0242,4.221168 6.59657,9.439265 8.94012,9.193871 -2.1342,-0.552354 -7.52278,-5.524148 -8.94012,-9.193871 z"
         id="path2006"
         sodipodi:nodetypes="ccc" /><path
         style="fill:#ffffff;fill-opacity:1;stroke:none;stroke-width:0.285722px;stroke-linecap:butt;stroke-linejoin:miter;stroke-opacity:1"
         d="m 126.62091,77.245343 c -1.30667,7.637952 2.08676,12.542315 5.9957,13.213373 -3.02943,-1.942526 -5.98705,-7.785748 -5.9957,-13.213373 z"
         id="path2008"
         sodipodi:nodetypes="ccc" /><path
         style="fill:#ffffff;fill-opacity:1;stroke:none;stroke-width:0.285722px;stroke-linecap:butt;stroke-linejoin:miter;stroke-opacity:1"
         d="m 132.48435,84.701672 c -0.47044,2.185375 -0.17181,4.568954 2.40674,6.169304 -1.98756,-2.542288 -2.21979,-4.038086 -2.40674,-6.169304 z"
         id="path2010"
         sodipodi:nodetypes="ccc" /><path
         style="fill:#ffffff;fill-opacity:1;stroke:none;stroke-width:0.285722px;stroke-linecap:butt;stroke-linejoin:miter;stroke-opacity:1"
         d="m 120.19511,74.887116 c 1.40795,2.712635 5.86637,1.628928 6.96099,0.0067 -1.64111,1.043071 -4.48069,2.251235 -6.96099,-0.0067 z"
         id="path2012"
         sodipodi:nodetypes="ccc" /><path
         style="fill:#ffffff;fill-opacity:1;stroke:none;stroke-width:0.285722px;stroke-linecap:butt;stroke-linejoin:miter;stroke-opacity:1"
         d="m 126.77889,75.767576 c 3.00538,1.072662 4.97894,0.350921 6.65009,-1.279613 -2.70876,1.357806 -3.70771,1.748954 -6.65009,1.279613 z"
         id="path2014"
         sodipodi:nodetypes="ccc" /><path
         style="fill:#ffffff;fill-opacity:1;stroke:none;stroke-width:0.285722px;stroke-linecap:butt;stroke-linejoin:miter;stroke-opacity:1"
         d="m 238.1851,65.816852 c 19.25182,10.025124 19.38763,13.758319 0.0864,6.410061 20.70208,5.971676 13.22473,2.452463 -0.0864,-6.410061 z"
         id="path2127"
         sodipodi:nodetypes="ccc" /><path
         style="fill:#ffffff;fill-opacity:1;stroke:none;stroke-width:0.285722px;stroke-linecap:butt;stroke-linejoin:miter;stroke-opacity:1"
         d="m 213.22632,61.65185 c 33.27111,15.604258 30.75678,22.21589 14.87314,13.076613 20.94798,8.788609 2.7135,-2.5872 -14.87314,-13.076613 z"
         id="path2129"
         sodipodi:nodetypes="ccc" /><path
         style="fill:#ffffff;fill-opacity:1;stroke:none;stroke-width:0.285722px;stroke-linecap:butt;stroke-linejoin:miter;stroke-opacity:1"
         d="m 207.90545,61.408258 c 22.28686,14.862763 29.25234,27.127565 15.4732,16.869986 17.00915,9.360058 -12.11076,-14.294399 -15.4732,-16.869986 z"
         id="path2131"
         sodipodi:nodetypes="ccc" /><path
         style="fill:#ffffff;fill-opacity:1;stroke:none;stroke-width:0.285722px;stroke-linecap:butt;stroke-linejoin:miter;stroke-opacity:1"
         d="m 207.05847,64.927885 c 22.99056,12.451983 14.61591,18.257063 9.59092,13.697606 11.8448,2.3434 -6.22849,-11.122019 -9.59092,-13.697606 z"
         id="path2133"
         sodipodi:nodetypes="ccc" /><path
         style="fill:#ffffff;fill-opacity:1;stroke:none;stroke-width:0.285722px;stroke-linecap:butt;stroke-linejoin:miter;stroke-opacity:1"
         d="m 207.09629,67.555467 c 11.94141,14.627825 5.60463,19.363121 0.29503,12.58848 10.25324,5.993612 1.92493,-9.74168 -0.29503,-12.58848 z"
         id="path2135"
         sodipodi:nodetypes="ccc" /><path
         style="fill:#ffffff;fill-opacity:1;stroke:none;stroke-width:0.285722px;stroke-linecap:butt;stroke-linejoin:miter;stroke-opacity:1"
         d="m 201.85548,68.624972 c 8.6093,11.97792 2.8552,14.400132 1.44025,14.138505 4.96123,-1.217523 0.77972,-11.291705 -1.44025,-14.138505 z"
         id="path2137"
         sodipodi:nodetypes="ccc" /><path
         style="fill:#ffffff;fill-opacity:1;stroke:none;stroke-width:0.285722px;stroke-linecap:butt;stroke-linejoin:miter;stroke-opacity:1"
         d="m 200.39319,69.268074 c 11.81632,13.844583 4.79723,14.157748 3.37695,13.408098 6.60308,-0.439073 -1.15698,-10.561298 -3.37695,-13.408098 z"
         id="path2139"
         sodipodi:nodetypes="ccc" /><path
         style="fill:#ffffff;fill-opacity:1;stroke:none;stroke-width:0.285722px;stroke-linecap:butt;stroke-linejoin:miter;stroke-opacity:1"
         d="m 195.91466,69.976187 c 12.70989,14.052932 4.45491,15.097985 1.04011,14.164155 10.02654,0.290644 1.17985,-11.317355 -1.04011,-14.164155 z"
         id="path2141"
         sodipodi:nodetypes="ccc" /><path
         style="fill:#ffffff;fill-opacity:1;stroke:none;stroke-width:0.285722px;stroke-linecap:butt;stroke-linejoin:miter;stroke-opacity:1"
         d="m 197.73633,72.58263 c 6.56408,7.435659 2.72814,11.481658 -0.78156,11.557712 5.26774,-1.804104 4.50868,-6.998843 0.78156,-11.557712 z"
         id="path2143"
         sodipodi:nodetypes="ccc" /><path
         style="fill:#ffffff;fill-opacity:1;stroke:none;stroke-width:0.285722px;stroke-linecap:butt;stroke-linejoin:miter;stroke-opacity:1"
         d="m 192.53548,73.551377 c 6.56408,7.43566 3.30554,11.651535 -0.0632,12.608142 3.9033,-2.767919 3.39955,-8.097907 0.0632,-12.608142 z"
         id="path2145"
         sodipodi:nodetypes="ccc" /><path
         style="fill:#ffffff;fill-opacity:1;stroke:none;stroke-width:0.285722px;stroke-linecap:butt;stroke-linejoin:miter;stroke-opacity:1"
         d="m 189.4495,73.928617 c 6.1902,7.569331 2.75123,12.231204 -0.18828,13.478435 3.69525,-2.959201 3.52464,-8.9682 0.18828,-13.478435 z"
         id="path2147"
         sodipodi:nodetypes="ccc" /><path
         style="fill:#ffffff;fill-opacity:1;stroke:none;stroke-width:0.285722px;stroke-linecap:butt;stroke-linejoin:miter;stroke-opacity:1"
         d="m 189.4495,73.928617 c 5.39221,6.906203 1.71214,11.115764 -1.22736,12.362995 3.69525,-2.959202 4.56372,-7.85276 1.22736,-12.362995 z"
         id="path2149"
         sodipodi:nodetypes="ccc" /><path
         style="fill:#ffffff;fill-opacity:1;stroke:none;stroke-width:0.285722px;stroke-linecap:butt;stroke-linejoin:miter;stroke-opacity:1"
         d="m 187.06035,74.176112 c 6.92128,9.863592 -1.43107,18.888054 -8.3407,20.712277 6.89387,-3.375405 12.90403,-11.616275 8.3407,-20.712277 z"
         id="path2151"
         sodipodi:nodetypes="ccc" /><path
         style="fill:#ffffff;fill-opacity:1;stroke:none;stroke-width:0.285722px;stroke-linecap:butt;stroke-linejoin:miter;stroke-opacity:1"
         d="m 187.06035,74.176112 c 6.99948,9.924735 -3.26641,18.359964 -10.8896,19.626314 8.03618,-3.116641 15.96551,-10.414196 10.8896,-19.626314 z"
         id="path2153"
         sodipodi:nodetypes="ccc" /><path
         style="fill:#ffffff;fill-opacity:1;stroke:none;stroke-width:0.285722px;stroke-linecap:butt;stroke-linejoin:miter;stroke-opacity:1"
         d="m 180.05946,82.442104 c 0.57444,6.870422 -3.66359,10.509548 -6.08339,12.046443 3.73547,-4.100143 5.18851,-6.807249 6.08339,-12.046443 z"
         id="path2155"
         sodipodi:nodetypes="ccc" /><path
         style="fill:#ffffff;fill-opacity:1;stroke:none;stroke-width:0.285722px;stroke-linecap:butt;stroke-linejoin:miter;stroke-opacity:1"
         d="m 176.63066,79.638037 c 1.99873,5.901925 -0.10367,13.187775 -8.41145,17.541852 4.50364,-3.907897 8.96791,-10.036413 8.41145,-17.541852 z"
         id="path2157"
         sodipodi:nodetypes="ccc" /><path
         style="fill:#ffffff;fill-opacity:1;stroke:none;stroke-width:0.285722px;stroke-linecap:butt;stroke-linejoin:miter;stroke-opacity:1"
         d="m 172.14345,79.653031 c 1.99872,5.901925 3.05443,11.792859 -3.92424,17.526858 3.52552,-5.984405 5.16738,-8.702748 3.92424,-17.526858 z"
         id="path2159"
         sodipodi:nodetypes="ccc" /><path
         style="fill:#ffffff;fill-opacity:1;stroke:none;stroke-width:0.285722px;stroke-linecap:butt;stroke-linejoin:miter;stroke-opacity:1"
         d="m 168.50021,81.374897 c 1.99873,5.901925 1.31206,11.581917 -5.66662,17.315922 4.05846,-5.576049 6.90976,-8.491807 5.66662,-17.315922 z"
         id="path2161"
         sodipodi:nodetypes="ccc" /><path
         style="fill:#ffffff;fill-opacity:1;stroke:none;stroke-width:0.285722px;stroke-linecap:butt;stroke-linejoin:miter;stroke-opacity:1"
         d="m 168.50021,81.374897 c 1.99873,5.901925 -0.6255,12.28143 -7.826,16.641092 4.66659,-4.542532 8.43352,-7.734949 7.826,-16.641092 z"
         id="path2163"
         sodipodi:nodetypes="ccc" /><path
         style="fill:#ffffff;fill-opacity:1;stroke:none;stroke-width:0.285722px;stroke-linecap:butt;stroke-linejoin:miter;stroke-opacity:1"
         d="m 166.01311,81.683639 c 0.93691,6.908792 0.11992,18.553641 -11.06911,16.27696 8.62053,-0.30511 10.74609,-7.267719 11.06911,-16.27696 z"
         id="path2165"
         sodipodi:nodetypes="ccc" /><path
         style="fill:#ffffff;fill-opacity:1;stroke:none;stroke-width:0.285722px;stroke-linecap:butt;stroke-linejoin:miter;stroke-opacity:1"
         d="m 161.37418,83.630121 c 0.50692,4.942775 -1.66892,11.934595 -7.94571,12.210584 4.40223,-3.160527 7.48374,-6.393678 7.94571,-12.210584 z"
         id="path2167"
         sodipodi:nodetypes="ccc" /><path
         style="fill:#ffffff;fill-opacity:1;stroke:none;stroke-width:0.285722px;stroke-linecap:butt;stroke-linejoin:miter;stroke-opacity:1"
         d="m 156.10018,85.638965 c 0.50692,4.942772 -0.7466,10.562349 -6.49924,12.532024 4.40222,-3.160528 6.02025,-6.510318 6.49924,-12.532024 z"
         id="path2169"
         sodipodi:nodetypes="ccc" /><path
         style="fill:#ffffff;fill-opacity:1;stroke:none;stroke-width:0.285722px;stroke-linecap:butt;stroke-linejoin:miter;stroke-opacity:1"
         d="m 152.47103,85.692817 c 0.50692,4.942774 0.41457,9.65943 -4.60661,11.664812 3.83231,-3.212142 4.40999,-5.724863 4.60661,-11.664812 z"
         id="path2171"
         sodipodi:nodetypes="ccc" /><path
         style="fill:#ffffff;fill-opacity:1;stroke:none;stroke-width:0.285722px;stroke-linecap:butt;stroke-linejoin:miter;stroke-opacity:1"
         d="m 149.61353,87.139843 c 0.76447,5.466221 0.60989,8.52701 -4.01745,10.355206 3.49246,-3.099977 3.91054,-4.088513 4.01745,-10.355206 z"
         id="path2173"
         sodipodi:nodetypes="ccc" /><path
         style="fill:#ffffff;fill-opacity:1;stroke:none;stroke-width:0.285722px;stroke-linecap:butt;stroke-linejoin:miter;stroke-opacity:1"
         d="m 147.19243,87.62758 c 0.11029,5.692791 0.21088,8.437581 -4.41646,10.265779 3.83078,-3.172105 3.84301,-3.894177 4.41646,-10.265779 z"
         id="path2175"
         sodipodi:nodetypes="ccc" /><path
         style="fill:#ffffff;fill-opacity:1;stroke:none;stroke-width:0.285722px;stroke-linecap:butt;stroke-linejoin:miter;stroke-opacity:1"
         d="m 147.19243,87.62758 c 0.70936,6.080776 -5.24993,15.76312 -4.75869,1.697743 0.33208,11.334577 4.18524,4.673859 4.75869,-1.697743 z"
         id="path2177"
         sodipodi:nodetypes="ccc" /><path
         style="fill:#ffffff;fill-opacity:1;stroke:none;stroke-width:0.285722px;stroke-linecap:butt;stroke-linejoin:miter;stroke-opacity:1"
         d="m 197.95374,59.486925 c 7.39916,0.920657 6.3902,5.862991 3.49725,7.181612 2.50957,-2.600201 1.97607,-5.266317 -3.49725,-7.181612 z"
         id="path2179"
         sodipodi:nodetypes="ccc" /><path
         style="fill:#ffffff;fill-opacity:1;stroke:none;stroke-width:0.285722px;stroke-linecap:butt;stroke-linejoin:miter;stroke-opacity:1"
         d="m 197.95374,59.486925 c 7.39916,0.920657 8.40262,7.130697 3.49725,7.181612 4.41836,-1.499509 1.97607,-5.266317 -3.49725,-7.181612 z"
         id="path2181"
         sodipodi:nodetypes="ccc" /><path
         style="fill:#ffffff;fill-opacity:1;stroke:none;stroke-width:0.285722px;stroke-linecap:butt;stroke-linejoin:miter;stroke-opacity:1"
         d="m 195.36266,61.191632 c 7.40092,0.924426 8.16332,5.432994 3.25794,5.483909 3.53888,-1.413708 2.66015,-3.715171 -3.25794,-5.483909 z"
         id="path2183"
         sodipodi:nodetypes="ccc" /><path
         style="fill:#ffffff;fill-opacity:1;stroke:none;stroke-width:0.285722px;stroke-linecap:butt;stroke-linejoin:miter;stroke-opacity:1"
         d="m 192.97475,61.12669 c 7.4132,1.249699 4.61525,5.420019 0.53907,5.411431 3.53886,-1.413708 4.97563,-3.590795 -0.53907,-5.411431 z"
         id="path2185"
         sodipodi:nodetypes="ccc" /><path
         style="fill:#ffffff;fill-opacity:1;stroke:none;stroke-width:0.285722px;stroke-linecap:butt;stroke-linejoin:miter;stroke-opacity:1"
         d="m 192.97475,61.12669 c 5.12219,1.855394 2.85627,3.821133 0.53907,5.411431 1.9794,-2.148731 3.81662,-3.186766 -0.53907,-5.411431 z"
         id="path2187"
         sodipodi:nodetypes="ccc" /><path
         style="fill:#ffffff;fill-opacity:1;stroke:none;stroke-width:0.285722px;stroke-linecap:butt;stroke-linejoin:miter;stroke-opacity:1"
         d="m 191.25394,62.261208 c 6.08057,1.432794 2.76629,4.762225 -0.0652,4.88212 1.87727,-0.812753 4.35751,-2.571077 0.0652,-4.88212 z"
         id="path2189"
         sodipodi:nodetypes="ccc" /><path
         style="fill:#ffffff;fill-opacity:1;stroke:none;stroke-width:0.285722px;stroke-linecap:butt;stroke-linejoin:miter;stroke-opacity:1"
         d="m 189.27962,62.569112 c 5.00641,1.756805 0.49139,5.709178 -0.88879,5.897983 1.15729,-0.876247 3.89813,-3.700077 0.88879,-5.897983 z"
         id="path2191"
         sodipodi:nodetypes="ccc" /><path
         style="fill:#ffffff;fill-opacity:1;stroke:none;stroke-width:0.285722px;stroke-linecap:butt;stroke-linejoin:miter;stroke-opacity:1"
         d="m 186.8477,62.857834 c 4.58648,2.927526 -1.16706,7.487825 -2.82397,7.527492 1.41113,-0.763172 5.31753,-4.500462 2.82397,-7.527492 z"
         id="path2193"
         sodipodi:nodetypes="ccc" /><path
         style="fill:#ffffff;fill-opacity:1;stroke:none;stroke-width:0.285722px;stroke-linecap:butt;stroke-linejoin:miter;stroke-opacity:1"
         d="m 185.94254,64.443605 c 3.76684,2.635038 -0.2619,5.902054 -1.91881,5.941721 1.41113,-0.763172 3.83311,-3.22127 1.91881,-5.941721 z"
         id="path2195"
         sodipodi:nodetypes="ccc" /><path
         style="fill:#ffffff;fill-opacity:1;stroke:none;stroke-width:0.285722px;stroke-linecap:butt;stroke-linejoin:miter;stroke-opacity:1"
         d="m 182.5791,64.370012 c 3.76684,2.635038 0.0176,6.000061 -1.6393,6.039728 1.41113,-0.763172 3.5536,-3.319277 1.6393,-6.039728 z"
         id="path2197"
         sodipodi:nodetypes="ccc" /><path
         style="fill:#ffffff;fill-opacity:1;stroke:none;stroke-width:0.285722px;stroke-linecap:butt;stroke-linejoin:miter;stroke-opacity:1"
         d="m 181.44417,64.304789 c 3.76683,2.635038 0.90434,5.828183 -0.50437,6.104951 0.9903,-0.881758 2.41866,-3.3845 0.50437,-6.104951 z"
         id="path2199"
         sodipodi:nodetypes="ccc" /><path
         style="fill:#ffffff;fill-opacity:1;stroke:none;stroke-width:0.285722px;stroke-linecap:butt;stroke-linejoin:miter;stroke-opacity:1"
         d="m 179.42566,65.251718 c 3.76684,2.635037 -0.36187,6.376328 -1.77058,6.653096 0.99029,-0.881757 3.68488,-3.932645 1.77058,-6.653096 z"
         id="path2201"
         sodipodi:nodetypes="ccc" /><path
         style="fill:#ffffff;fill-opacity:1;stroke:none;stroke-width:0.285722px;stroke-linecap:butt;stroke-linejoin:miter;stroke-opacity:1"
         d="m 178.41531,66.484173 c 3.76684,2.635038 0.64848,5.143873 -0.76023,5.420641 0.99029,-0.881757 2.67453,-2.70019 0.76023,-5.420641 z"
         id="path2203"
         sodipodi:nodetypes="ccc" /><path
         style="fill:#ffffff;fill-opacity:1;stroke:none;stroke-width:0.285722px;stroke-linecap:butt;stroke-linejoin:miter;stroke-opacity:1"
         d="m 176.56984,67.380961 c 3.20571,3.437934 -1.76287,7.659706 -3.17157,7.936475 0.99029,-0.881758 4.71825,-4.929605 3.17157,-7.936475 z"
         id="path2205"
         sodipodi:nodetypes="ccc" /><path
         style="fill:#ffffff;fill-opacity:1;stroke:none;stroke-width:0.285722px;stroke-linecap:butt;stroke-linejoin:miter;stroke-opacity:1"
         d="m 173.54127,68.790873 c 2.03809,3.605936 -2.60336,7.233044 -4.01208,7.509812 1.36014,-0.926545 4.52185,-4.553451 4.01208,-7.509812 z"
         id="path2207"
         sodipodi:nodetypes="ccc" /><path
         style="fill:#ffffff;fill-opacity:1;stroke:none;stroke-width:0.285722px;stroke-linecap:butt;stroke-linejoin:miter;stroke-opacity:1"
         d="m 167.58742,71.313543 c 2.75728,4.87373 -2.2711,7.819885 -4.01207,7.509811 1.8915,-0.425609 5.44273,-3.68528 4.01207,-7.509811 z"
         id="path2209"
         sodipodi:nodetypes="ccc" /><path
         style="fill:#ffffff;fill-opacity:1;stroke:none;stroke-width:0.285722px;stroke-linecap:butt;stroke-linejoin:miter;stroke-opacity:1"
         d="m 164.4375,72.084631 c 2.24584,4.946388 -2.01084,7.445402 -3.65087,7.120989 1.76788,-0.425609 4.71599,-3.296458 3.65087,-7.120989 z"
         id="path2211"
         sodipodi:nodetypes="ccc" /><path
         style="fill:#ffffff;fill-opacity:1;stroke:none;stroke-width:0.285722px;stroke-linecap:butt;stroke-linejoin:miter;stroke-opacity:1"
         d="m 160.11922,72.362493 c 3.40341,5.873844 -2.10027,9.008857 -4.00558,7.842875 2.08261,0.22156 5.74826,-3.098527 4.00558,-7.842875 z"
         id="path2213"
         sodipodi:nodetypes="ccc" /><path
         style="fill:#ffffff;fill-opacity:1;stroke:none;stroke-width:0.285722px;stroke-linecap:butt;stroke-linejoin:miter;stroke-opacity:1"
         d="m 156.85686,72.672072 c 3.4034,5.873844 -2.77258,9.056849 -4.54047,7.736148 2.25923,0.386045 6.28315,-2.9918 4.54047,-7.736148 z"
         id="path2215"
         sodipodi:nodetypes="ccc" /><path
         style="fill:#ffffff;fill-opacity:1;stroke:none;stroke-width:0.285722px;stroke-linecap:butt;stroke-linejoin:miter;stroke-opacity:1"
         d="m 153.53784,73.794312 c 2.58826,6.551769 -2.16212,7.551346 -4.33389,7.466932 2.35449,-0.841598 5.60821,-2.017997 4.33389,-7.466932 z"
         id="path2217"
         sodipodi:nodetypes="ccc" /><path
         style="fill:#ffffff;fill-opacity:1;stroke:none;stroke-width:0.285722px;stroke-linecap:butt;stroke-linejoin:miter;stroke-opacity:1"
         d="m 150.73824,74.887116 c 0.0471,6.639662 -3.25199,6.796581 -5.42377,6.712167 2.35449,-0.841598 4.43832,-1.816516 5.42377,-6.712167 z"
         id="path2219"
         sodipodi:nodetypes="ccc" /><path
         style="fill:#ffffff;fill-opacity:1;stroke:none;stroke-width:0.285722px;stroke-linecap:butt;stroke-linejoin:miter;stroke-opacity:1"
         d="m 147.68599,76.427938 c -0.48315,3.745751 -2.38821,4.712591 -4.55998,4.628176 2.13421,-0.552354 3.14264,-0.958454 4.55998,-4.628176 z"
         id="path2221"
         sodipodi:nodetypes="ccc" /><path
         style="fill:#ffffff;fill-opacity:1;stroke:none;stroke-width:0.285722px;stroke-linecap:butt;stroke-linejoin:miter;stroke-opacity:1"
         d="m 144.31243,77.245343 c 0.0242,4.221168 -6.59656,9.439265 -8.94012,9.193871 2.13421,-0.552354 7.52278,-5.524148 8.94012,-9.193871 z"
         id="path2223"
         sodipodi:nodetypes="ccc" /><path
         style="fill:#ffffff;fill-opacity:1;stroke:none;stroke-width:0.285722px;stroke-linecap:butt;stroke-linejoin:miter;stroke-opacity:1"
         d="m 144.31243,77.245343 c 1.30668,7.637952 -2.08675,12.542315 -5.9957,13.213373 3.02944,-1.942526 5.98705,-7.785748 5.9957,-13.213373 z"
         id="path2225"
         sodipodi:nodetypes="ccc" /><path
         style="fill:#ffffff;fill-opacity:1;stroke:none;stroke-width:0.285722px;stroke-linecap:butt;stroke-linejoin:miter;stroke-opacity:1"
         d="m 138.449,84.701672 c 0.47043,2.185375 0.17181,4.568954 -2.40674,6.169304 1.98755,-2.542288 2.21978,-4.038086 2.40674,-6.169304 z"
         id="path2227"
         sodipodi:nodetypes="ccc" /><path
         style="fill:#ffffff;fill-opacity:1;stroke:none;stroke-width:0.285722px;stroke-linecap:butt;stroke-linejoin:miter;stroke-opacity:1"
         d="m 150.73824,74.887116 c -1.40796,2.712635 -5.86638,1.628928 -6.96099,0.0067 1.6411,1.043071 4.48069,2.251235 6.96099,-0.0067 z"
         id="path2229"
         sodipodi:nodetypes="ccc" /><path
         style="fill:#ffffff;fill-opacity:1;stroke:none;stroke-width:0.285722px;stroke-linecap:butt;stroke-linejoin:miter;stroke-opacity:1"
         d="m 144.15446,75.767576 c -3.00538,1.072662 -4.97894,0.350921 -6.65009,-1.279613 2.70875,1.357806 3.70771,1.748954 6.65009,1.279613 z"
         id="path2231"
         sodipodi:nodetypes="ccc" /></g></g><metadata
     id="metadata1"><rdf:RDF><cc:Work
         rdf:about=""><dc:creator><cc:Agent><dc:title>mechtifs</dc:title></cc:Agent></dc:creator><dc:source>SWJTU NSA</dc:source></cc:Work></rdf:RDF></metadata></svg>
